<?xml version="1.0" encoding="utf-8" standalone="no"?>
<!DOCTYPE svg PUBLIC "-//W3C//DTD SVG 1.1//EN"
  "http://www.w3.org/Graphics/SVG/1.1/DTD/svg11.dtd">
<svg height="234pt" version="1.1" viewBox="0 0 468 234" width="468pt" xmlns="http://www.w3.org/2000/svg" xmlns:xlink="http://www.w3.org/1999/xlink">
 <metadata>
  <rdf:RDF xmlns:cc="http://creativecommons.org/ns#" xmlns:dc="http://purl.org/dc/elements/1.1/" xmlns:rdf="http://www.w3.org/1999/02/22-rdf-syntax-ns#">
   <cc:Work>
    <dc:type rdf:resource="http://purl.org/dc/dcmitype/StillImage"/>
    <dc:date>2022-10-14T23:16:26.039473</dc:date>
    <dc:format>image/svg+xml</dc:format>
    <dc:creator>
     <cc:Agent>
      <dc:title>Matplotlib v3.4.3, https://matplotlib.org/</dc:title>
     </cc:Agent>
    </dc:creator>
   </cc:Work>
  </rdf:RDF>
 </metadata>
 <defs>
  <style type="text/css">*{stroke-linecap:butt;stroke-linejoin:round;}</style>
 </defs>
 <g id="figure_1">
  <g id="patch_1">
   <path d="M 0 234 
L 468 234 
L 468 0 
L 0 0 
z
" style="fill:#ffffff;"/>
  </g>
  <g id="axes_1">
   <g id="patch_2">
    <path d="M 58.5 208.26 
L 219.7 208.26 
L 219.7 28.08 
L 58.5 28.08 
z
" style="fill:#ffffff;"/>
   </g>
   <g id="PathCollection_1">
    <defs>
     <path d="M 0 0.707107 
C 0.187527 0.707107 0.367398 0.632602 0.5 0.5 
C 0.632602 0.367398 0.707107 0.187527 0.707107 0 
C 0.707107 -0.187527 0.632602 -0.367398 0.5 -0.5 
C 0.367398 -0.632602 0.187527 -0.707107 0 -0.707107 
C -0.187527 -0.707107 -0.367398 -0.632602 -0.5 -0.5 
C -0.632602 -0.367398 -0.707107 -0.187527 -0.707107 0 
C -0.707107 0.187527 -0.632602 0.367398 -0.5 0.5 
C -0.367398 0.632602 -0.187527 0.707107 0 0.707107 
z
" id="m1001a613d0" style="stroke:#1f77b4;"/>
    </defs>
    <g clip-path="url(#pe231ae253c)">
     <use style="fill:#1f77b4;stroke:#1f77b4;" x="65.827273" xlink:href="#m1001a613d0" y="190.006043"/>
     <use style="fill:#1f77b4;stroke:#1f77b4;" x="70.554545" xlink:href="#m1001a613d0" y="189.711191"/>
     <use style="fill:#1f77b4;stroke:#1f77b4;" x="75.281818" xlink:href="#m1001a613d0" y="188.724761"/>
     <use style="fill:#1f77b4;stroke:#1f77b4;" x="80.009091" xlink:href="#m1001a613d0" y="184.3845"/>
     <use style="fill:#1f77b4;stroke:#1f77b4;" x="89.463636" xlink:href="#m1001a613d0" y="173.257321"/>
     <use style="fill:#1f77b4;stroke:#1f77b4;" x="98.918182" xlink:href="#m1001a613d0" y="163.513754"/>
     <use style="fill:#1f77b4;stroke:#1f77b4;" x="108.372727" xlink:href="#m1001a613d0" y="152.677555"/>
     <use style="fill:#1f77b4;stroke:#1f77b4;" x="117.827273" xlink:href="#m1001a613d0" y="141.239709"/>
     <use style="fill:#1f77b4;stroke:#1f77b4;" x="127.281818" xlink:href="#m1001a613d0" y="132.269125"/>
     <use style="fill:#1f77b4;stroke:#1f77b4;" x="136.736364" xlink:href="#m1001a613d0" y="120.625608"/>
     <use style="fill:#1f77b4;stroke:#1f77b4;" x="155.645455" xlink:href="#m1001a613d0" y="98.086746"/>
     <use style="fill:#1f77b4;stroke:#1f77b4;" x="174.554545" xlink:href="#m1001a613d0" y="77.378093"/>
     <use style="fill:#1f77b4;stroke:#1f77b4;" x="193.463636" xlink:href="#m1001a613d0" y="60.162058"/>
     <use style="fill:#1f77b4;stroke:#1f77b4;" x="212.372727" xlink:href="#m1001a613d0" y="36.27"/>
    </g>
   </g>
   <g id="PathCollection_2">
    <defs>
     <path d="M 0 0.707107 
C 0.187527 0.707107 0.367398 0.632602 0.5 0.5 
C 0.632602 0.367398 0.707107 0.187527 0.707107 0 
C 0.707107 -0.187527 0.632602 -0.367398 0.5 -0.5 
C 0.367398 -0.632602 0.187527 -0.707107 0 -0.707107 
C -0.187527 -0.707107 -0.367398 -0.632602 -0.5 -0.5 
C -0.632602 -0.367398 -0.707107 -0.187527 -0.707107 0 
C -0.707107 0.187527 -0.632602 0.367398 -0.5 0.5 
C -0.367398 0.632602 -0.187527 0.707107 0 0.707107 
z
" id="mc00d7e932c" style="stroke:#aec7e8;"/>
    </defs>
    <g clip-path="url(#pe231ae253c)">
     <use style="fill:#aec7e8;stroke:#aec7e8;" x="65.827273" xlink:href="#mc00d7e932c" y="199.731108"/>
     <use style="fill:#aec7e8;stroke:#aec7e8;" x="70.554545" xlink:href="#mc00d7e932c" y="200.07"/>
     <use style="fill:#aec7e8;stroke:#aec7e8;" x="75.281818" xlink:href="#mc00d7e932c" y="199.761205"/>
     <use style="fill:#aec7e8;stroke:#aec7e8;" x="80.009091" xlink:href="#mc00d7e932c" y="197.361725"/>
     <use style="fill:#aec7e8;stroke:#aec7e8;" x="89.463636" xlink:href="#mc00d7e932c" y="193.385379"/>
     <use style="fill:#aec7e8;stroke:#aec7e8;" x="98.918182" xlink:href="#mc00d7e932c" y="188.886765"/>
     <use style="fill:#aec7e8;stroke:#aec7e8;" x="108.372727" xlink:href="#mc00d7e932c" y="184.9425"/>
     <use style="fill:#aec7e8;stroke:#aec7e8;" x="117.827273" xlink:href="#mc00d7e932c" y="180.574298"/>
     <use style="fill:#aec7e8;stroke:#aec7e8;" x="127.281818" xlink:href="#mc00d7e932c" y="176.966663"/>
     <use style="fill:#aec7e8;stroke:#aec7e8;" x="136.736364" xlink:href="#mc00d7e932c" y="172.339377"/>
     <use style="fill:#aec7e8;stroke:#aec7e8;" x="155.645455" xlink:href="#mc00d7e932c" y="162.751101"/>
     <use style="fill:#aec7e8;stroke:#aec7e8;" x="174.554545" xlink:href="#mc00d7e932c" y="154.214702"/>
     <use style="fill:#aec7e8;stroke:#aec7e8;" x="193.463636" xlink:href="#mc00d7e932c" y="147.50111"/>
     <use style="fill:#aec7e8;stroke:#aec7e8;" x="212.372727" xlink:href="#mc00d7e932c" y="137.642832"/>
    </g>
   </g>
   <g id="PathCollection_3">
    <defs>
     <path d="M 0 0.707107 
C 0.187527 0.707107 0.367398 0.632602 0.5 0.5 
C 0.632602 0.367398 0.707107 0.187527 0.707107 0 
C 0.707107 -0.187527 0.632602 -0.367398 0.5 -0.5 
C 0.367398 -0.632602 0.187527 -0.707107 0 -0.707107 
C -0.187527 -0.707107 -0.367398 -0.632602 -0.5 -0.5 
C -0.632602 -0.367398 -0.707107 -0.187527 -0.707107 0 
C -0.707107 0.187527 -0.632602 0.367398 -0.5 0.5 
C -0.367398 0.632602 -0.187527 0.707107 0 0.707107 
z
" id="ma0775ec78a" style="stroke:#ff7f0e;"/>
    </defs>
    <g clip-path="url(#pe231ae253c)">
     <use style="fill:#ff7f0e;stroke:#ff7f0e;" x="65.827273" xlink:href="#ma0775ec78a" y="173.521588"/>
     <use style="fill:#ff7f0e;stroke:#ff7f0e;" x="70.554545" xlink:href="#ma0775ec78a" y="173.533736"/>
     <use style="fill:#ff7f0e;stroke:#ff7f0e;" x="75.281818" xlink:href="#ma0775ec78a" y="173.36636"/>
     <use style="fill:#ff7f0e;stroke:#ff7f0e;" x="80.009091" xlink:href="#ma0775ec78a" y="173.376323"/>
     <use style="fill:#ff7f0e;stroke:#ff7f0e;" x="89.463636" xlink:href="#ma0775ec78a" y="171.111294"/>
     <use style="fill:#ff7f0e;stroke:#ff7f0e;" x="98.918182" xlink:href="#ma0775ec78a" y="167.324088"/>
     <use style="fill:#ff7f0e;stroke:#ff7f0e;" x="108.372727" xlink:href="#ma0775ec78a" y="158.729412"/>
     <use style="fill:#ff7f0e;stroke:#ff7f0e;" x="117.827273" xlink:href="#ma0775ec78a" y="148.773557"/>
     <use style="fill:#ff7f0e;stroke:#ff7f0e;" x="127.281818" xlink:href="#ma0775ec78a" y="141.490846"/>
     <use style="fill:#ff7f0e;stroke:#ff7f0e;" x="136.736364" xlink:href="#ma0775ec78a" y="132.154189"/>
     <use style="fill:#ff7f0e;stroke:#ff7f0e;" x="155.645455" xlink:href="#ma0775ec78a" y="113.540169"/>
     <use style="fill:#ff7f0e;stroke:#ff7f0e;" x="174.554545" xlink:href="#ma0775ec78a" y="95.549172"/>
     <use style="fill:#ff7f0e;stroke:#ff7f0e;" x="193.463636" xlink:href="#ma0775ec78a" y="81.00309"/>
     <use style="fill:#ff7f0e;stroke:#ff7f0e;" x="212.372727" xlink:href="#ma0775ec78a" y="61.810492"/>
    </g>
   </g>
   <g id="PathCollection_4">
    <defs>
     <path d="M 0 0.707107 
C 0.187527 0.707107 0.367398 0.632602 0.5 0.5 
C 0.632602 0.367398 0.707107 0.187527 0.707107 0 
C 0.707107 -0.187527 0.632602 -0.367398 0.5 -0.5 
C 0.367398 -0.632602 0.187527 -0.707107 0 -0.707107 
C -0.187527 -0.707107 -0.367398 -0.632602 -0.5 -0.5 
C -0.632602 -0.367398 -0.707107 -0.187527 -0.707107 0 
C -0.707107 0.187527 -0.632602 0.367398 -0.5 0.5 
C -0.367398 0.632602 -0.187527 0.707107 0 0.707107 
z
" id="m7bcac59e66" style="stroke:#ffbb78;"/>
    </defs>
    <g clip-path="url(#pe231ae253c)">
     <use style="fill:#ffbb78;stroke:#ffbb78;" x="65.827273" xlink:href="#m7bcac59e66" y="191.552424"/>
     <use style="fill:#ffbb78;stroke:#ffbb78;" x="70.554545" xlink:href="#m7bcac59e66" y="191.872331"/>
     <use style="fill:#ffbb78;stroke:#ffbb78;" x="75.281818" xlink:href="#m7bcac59e66" y="191.660417"/>
     <use style="fill:#ffbb78;stroke:#ffbb78;" x="80.009091" xlink:href="#m7bcac59e66" y="187.44003"/>
     <use style="fill:#ffbb78;stroke:#ffbb78;" x="89.463636" xlink:href="#m7bcac59e66" y="178.957271"/>
     <use style="fill:#ffbb78;stroke:#ffbb78;" x="98.918182" xlink:href="#m7bcac59e66" y="170.889479"/>
     <use style="fill:#ffbb78;stroke:#ffbb78;" x="108.372727" xlink:href="#m7bcac59e66" y="162.140765"/>
     <use style="fill:#ffbb78;stroke:#ffbb78;" x="117.827273" xlink:href="#m7bcac59e66" y="152.472512"/>
     <use style="fill:#ffbb78;stroke:#ffbb78;" x="127.281818" xlink:href="#m7bcac59e66" y="145.369568"/>
     <use style="fill:#ffbb78;stroke:#ffbb78;" x="136.736364" xlink:href="#m7bcac59e66" y="135.270827"/>
     <use style="fill:#ffbb78;stroke:#ffbb78;" x="155.645455" xlink:href="#m7bcac59e66" y="116.050439"/>
     <use style="fill:#ffbb78;stroke:#ffbb78;" x="174.554545" xlink:href="#m7bcac59e66" y="98.673666"/>
     <use style="fill:#ffbb78;stroke:#ffbb78;" x="193.463636" xlink:href="#m7bcac59e66" y="85.149645"/>
     <use style="fill:#ffbb78;stroke:#ffbb78;" x="212.372727" xlink:href="#m7bcac59e66" y="64.854534"/>
    </g>
   </g>
   <g id="matplotlib.axis_1">
    <g id="xtick_1">
     <g id="line2d_1">
      <defs>
       <path d="M 0 0 
L 0 3.5 
" id="me7d21d4faf" style="stroke:#000000;stroke-width:0.8;"/>
      </defs>
      <g>
       <use style="stroke:#000000;stroke-width:0.8;" x="61.1" xlink:href="#me7d21d4faf" y="208.26"/>
      </g>
     </g>
     <g id="text_1">
      <!-- 0.0 -->
      <g transform="translate(53.148438 222.858438)scale(0.1 -0.1)">
       <defs>
        <path d="M 2034 4250 
Q 1547 4250 1301 3770 
Q 1056 3291 1056 2328 
Q 1056 1369 1301 889 
Q 1547 409 2034 409 
Q 2525 409 2770 889 
Q 3016 1369 3016 2328 
Q 3016 3291 2770 3770 
Q 2525 4250 2034 4250 
z
M 2034 4750 
Q 2819 4750 3233 4129 
Q 3647 3509 3647 2328 
Q 3647 1150 3233 529 
Q 2819 -91 2034 -91 
Q 1250 -91 836 529 
Q 422 1150 422 2328 
Q 422 3509 836 4129 
Q 1250 4750 2034 4750 
z
" id="DejaVuSans-30" transform="scale(0.015625)"/>
        <path d="M 684 794 
L 1344 794 
L 1344 0 
L 684 0 
L 684 794 
z
" id="DejaVuSans-2e" transform="scale(0.015625)"/>
       </defs>
       <use xlink:href="#DejaVuSans-30"/>
       <use x="63.623047" xlink:href="#DejaVuSans-2e"/>
       <use x="95.410156" xlink:href="#DejaVuSans-30"/>
      </g>
     </g>
    </g>
    <g id="xtick_2">
     <g id="line2d_2">
      <g>
       <use style="stroke:#000000;stroke-width:0.8;" x="100.234363" xlink:href="#me7d21d4faf" y="208.26"/>
      </g>
     </g>
     <g id="text_2">
      <!-- 0.5 -->
      <g transform="translate(92.2828 222.858438)scale(0.1 -0.1)">
       <defs>
        <path d="M 691 4666 
L 3169 4666 
L 3169 4134 
L 1269 4134 
L 1269 2991 
Q 1406 3038 1543 3061 
Q 1681 3084 1819 3084 
Q 2600 3084 3056 2656 
Q 3513 2228 3513 1497 
Q 3513 744 3044 326 
Q 2575 -91 1722 -91 
Q 1428 -91 1123 -41 
Q 819 9 494 109 
L 494 744 
Q 775 591 1075 516 
Q 1375 441 1709 441 
Q 2250 441 2565 725 
Q 2881 1009 2881 1497 
Q 2881 1984 2565 2268 
Q 2250 2553 1709 2553 
Q 1456 2553 1204 2497 
Q 953 2441 691 2322 
L 691 4666 
z
" id="DejaVuSans-35" transform="scale(0.015625)"/>
       </defs>
       <use xlink:href="#DejaVuSans-30"/>
       <use x="63.623047" xlink:href="#DejaVuSans-2e"/>
       <use x="95.410156" xlink:href="#DejaVuSans-35"/>
      </g>
     </g>
    </g>
    <g id="xtick_3">
     <g id="line2d_3">
      <g>
       <use style="stroke:#000000;stroke-width:0.8;" x="139.368725" xlink:href="#me7d21d4faf" y="208.26"/>
      </g>
     </g>
     <g id="text_3">
      <!-- 1.0 -->
      <g transform="translate(131.417163 222.858438)scale(0.1 -0.1)">
       <defs>
        <path d="M 794 531 
L 1825 531 
L 1825 4091 
L 703 3866 
L 703 4441 
L 1819 4666 
L 2450 4666 
L 2450 531 
L 3481 531 
L 3481 0 
L 794 0 
L 794 531 
z
" id="DejaVuSans-31" transform="scale(0.015625)"/>
       </defs>
       <use xlink:href="#DejaVuSans-31"/>
       <use x="63.623047" xlink:href="#DejaVuSans-2e"/>
       <use x="95.410156" xlink:href="#DejaVuSans-30"/>
      </g>
     </g>
    </g>
    <g id="xtick_4">
     <g id="line2d_4">
      <g>
       <use style="stroke:#000000;stroke-width:0.8;" x="178.503088" xlink:href="#me7d21d4faf" y="208.26"/>
      </g>
     </g>
     <g id="text_4">
      <!-- 1.5 -->
      <g transform="translate(170.551526 222.858438)scale(0.1 -0.1)">
       <use xlink:href="#DejaVuSans-31"/>
       <use x="63.623047" xlink:href="#DejaVuSans-2e"/>
       <use x="95.410156" xlink:href="#DejaVuSans-35"/>
      </g>
     </g>
    </g>
    <g id="xtick_5">
     <g id="line2d_5">
      <g>
       <use style="stroke:#000000;stroke-width:0.8;" x="217.637451" xlink:href="#me7d21d4faf" y="208.26"/>
      </g>
     </g>
     <g id="text_5">
      <!-- 2.0 -->
      <g transform="translate(209.685888 222.858438)scale(0.1 -0.1)">
       <defs>
        <path d="M 1228 531 
L 3431 531 
L 3431 0 
L 469 0 
L 469 531 
Q 828 903 1448 1529 
Q 2069 2156 2228 2338 
Q 2531 2678 2651 2914 
Q 2772 3150 2772 3378 
Q 2772 3750 2511 3984 
Q 2250 4219 1831 4219 
Q 1534 4219 1204 4116 
Q 875 4013 500 3803 
L 500 4441 
Q 881 4594 1212 4672 
Q 1544 4750 1819 4750 
Q 2544 4750 2975 4387 
Q 3406 4025 3406 3419 
Q 3406 3131 3298 2873 
Q 3191 2616 2906 2266 
Q 2828 2175 2409 1742 
Q 1991 1309 1228 531 
z
" id="DejaVuSans-32" transform="scale(0.015625)"/>
       </defs>
       <use xlink:href="#DejaVuSans-32"/>
       <use x="63.623047" xlink:href="#DejaVuSans-2e"/>
       <use x="95.410156" xlink:href="#DejaVuSans-30"/>
      </g>
     </g>
    </g>
    <g id="text_6">
     <!-- MACs -->
     <g transform="translate(125.357031 236.536563)scale(0.1 -0.1)">
      <defs>
       <path d="M 628 4666 
L 1569 4666 
L 2759 1491 
L 3956 4666 
L 4897 4666 
L 4897 0 
L 4281 0 
L 4281 4097 
L 3078 897 
L 2444 897 
L 1241 4097 
L 1241 0 
L 628 0 
L 628 4666 
z
" id="DejaVuSans-4d" transform="scale(0.015625)"/>
       <path d="M 2188 4044 
L 1331 1722 
L 3047 1722 
L 2188 4044 
z
M 1831 4666 
L 2547 4666 
L 4325 0 
L 3669 0 
L 3244 1197 
L 1141 1197 
L 716 0 
L 50 0 
L 1831 4666 
z
" id="DejaVuSans-41" transform="scale(0.015625)"/>
       <path d="M 4122 4306 
L 4122 3641 
Q 3803 3938 3442 4084 
Q 3081 4231 2675 4231 
Q 1875 4231 1450 3742 
Q 1025 3253 1025 2328 
Q 1025 1406 1450 917 
Q 1875 428 2675 428 
Q 3081 428 3442 575 
Q 3803 722 4122 1019 
L 4122 359 
Q 3791 134 3420 21 
Q 3050 -91 2638 -91 
Q 1578 -91 968 557 
Q 359 1206 359 2328 
Q 359 3453 968 4101 
Q 1578 4750 2638 4750 
Q 3056 4750 3426 4639 
Q 3797 4528 4122 4306 
z
" id="DejaVuSans-43" transform="scale(0.015625)"/>
       <path d="M 2834 3397 
L 2834 2853 
Q 2591 2978 2328 3040 
Q 2066 3103 1784 3103 
Q 1356 3103 1142 2972 
Q 928 2841 928 2578 
Q 928 2378 1081 2264 
Q 1234 2150 1697 2047 
L 1894 2003 
Q 2506 1872 2764 1633 
Q 3022 1394 3022 966 
Q 3022 478 2636 193 
Q 2250 -91 1575 -91 
Q 1294 -91 989 -36 
Q 684 19 347 128 
L 347 722 
Q 666 556 975 473 
Q 1284 391 1588 391 
Q 1994 391 2212 530 
Q 2431 669 2431 922 
Q 2431 1156 2273 1281 
Q 2116 1406 1581 1522 
L 1381 1569 
Q 847 1681 609 1914 
Q 372 2147 372 2553 
Q 372 3047 722 3315 
Q 1072 3584 1716 3584 
Q 2034 3584 2315 3537 
Q 2597 3491 2834 3397 
z
" id="DejaVuSans-73" transform="scale(0.015625)"/>
      </defs>
      <use xlink:href="#DejaVuSans-4d"/>
      <use x="86.279297" xlink:href="#DejaVuSans-41"/>
      <use x="152.9375" xlink:href="#DejaVuSans-43"/>
      <use x="222.761719" xlink:href="#DejaVuSans-73"/>
     </g>
    </g>
    <g id="text_7">
     <!-- 1e10 -->
     <g transform="translate(194.459375 235.536563)scale(0.1 -0.1)">
      <defs>
       <path d="M 3597 1894 
L 3597 1613 
L 953 1613 
Q 991 1019 1311 708 
Q 1631 397 2203 397 
Q 2534 397 2845 478 
Q 3156 559 3463 722 
L 3463 178 
Q 3153 47 2828 -22 
Q 2503 -91 2169 -91 
Q 1331 -91 842 396 
Q 353 884 353 1716 
Q 353 2575 817 3079 
Q 1281 3584 2069 3584 
Q 2775 3584 3186 3129 
Q 3597 2675 3597 1894 
z
M 3022 2063 
Q 3016 2534 2758 2815 
Q 2500 3097 2075 3097 
Q 1594 3097 1305 2825 
Q 1016 2553 972 2059 
L 3022 2063 
z
" id="DejaVuSans-65" transform="scale(0.015625)"/>
      </defs>
      <use xlink:href="#DejaVuSans-31"/>
      <use x="63.623047" xlink:href="#DejaVuSans-65"/>
      <use x="125.146484" xlink:href="#DejaVuSans-31"/>
      <use x="188.769531" xlink:href="#DejaVuSans-30"/>
     </g>
    </g>
   </g>
   <g id="matplotlib.axis_2">
    <g id="ytick_1">
     <g id="line2d_6">
      <defs>
       <path d="M 0 0 
L -3.5 0 
" id="m48d29ce82b" style="stroke:#000000;stroke-width:0.8;"/>
      </defs>
      <g>
       <use style="stroke:#000000;stroke-width:0.8;" x="58.5" xlink:href="#m48d29ce82b" y="185.450063"/>
      </g>
     </g>
     <g id="text_8">
      <!-- 0.025 -->
      <g transform="translate(22.871875 189.249282)scale(0.1 -0.1)">
       <use xlink:href="#DejaVuSans-30"/>
       <use x="63.623047" xlink:href="#DejaVuSans-2e"/>
       <use x="95.410156" xlink:href="#DejaVuSans-30"/>
       <use x="159.033203" xlink:href="#DejaVuSans-32"/>
       <use x="222.65625" xlink:href="#DejaVuSans-35"/>
      </g>
     </g>
    </g>
    <g id="ytick_2">
     <g id="line2d_7">
      <g>
       <use style="stroke:#000000;stroke-width:0.8;" x="58.5" xlink:href="#m48d29ce82b" y="162.521994"/>
      </g>
     </g>
     <g id="text_9">
      <!-- 0.050 -->
      <g transform="translate(22.871875 166.321213)scale(0.1 -0.1)">
       <use xlink:href="#DejaVuSans-30"/>
       <use x="63.623047" xlink:href="#DejaVuSans-2e"/>
       <use x="95.410156" xlink:href="#DejaVuSans-30"/>
       <use x="159.033203" xlink:href="#DejaVuSans-35"/>
       <use x="222.65625" xlink:href="#DejaVuSans-30"/>
      </g>
     </g>
    </g>
    <g id="ytick_3">
     <g id="line2d_8">
      <g>
       <use style="stroke:#000000;stroke-width:0.8;" x="58.5" xlink:href="#m48d29ce82b" y="139.593924"/>
      </g>
     </g>
     <g id="text_10">
      <!-- 0.075 -->
      <g transform="translate(22.871875 143.393143)scale(0.1 -0.1)">
       <defs>
        <path d="M 525 4666 
L 3525 4666 
L 3525 4397 
L 1831 0 
L 1172 0 
L 2766 4134 
L 525 4134 
L 525 4666 
z
" id="DejaVuSans-37" transform="scale(0.015625)"/>
       </defs>
       <use xlink:href="#DejaVuSans-30"/>
       <use x="63.623047" xlink:href="#DejaVuSans-2e"/>
       <use x="95.410156" xlink:href="#DejaVuSans-30"/>
       <use x="159.033203" xlink:href="#DejaVuSans-37"/>
       <use x="222.65625" xlink:href="#DejaVuSans-35"/>
      </g>
     </g>
    </g>
    <g id="ytick_4">
     <g id="line2d_9">
      <g>
       <use style="stroke:#000000;stroke-width:0.8;" x="58.5" xlink:href="#m48d29ce82b" y="116.665855"/>
      </g>
     </g>
     <g id="text_11">
      <!-- 0.100 -->
      <g transform="translate(22.871875 120.465073)scale(0.1 -0.1)">
       <use xlink:href="#DejaVuSans-30"/>
       <use x="63.623047" xlink:href="#DejaVuSans-2e"/>
       <use x="95.410156" xlink:href="#DejaVuSans-31"/>
       <use x="159.033203" xlink:href="#DejaVuSans-30"/>
       <use x="222.65625" xlink:href="#DejaVuSans-30"/>
      </g>
     </g>
    </g>
    <g id="ytick_5">
     <g id="line2d_10">
      <g>
       <use style="stroke:#000000;stroke-width:0.8;" x="58.5" xlink:href="#m48d29ce82b" y="93.737785"/>
      </g>
     </g>
     <g id="text_12">
      <!-- 0.125 -->
      <g transform="translate(22.871875 97.537004)scale(0.1 -0.1)">
       <use xlink:href="#DejaVuSans-30"/>
       <use x="63.623047" xlink:href="#DejaVuSans-2e"/>
       <use x="95.410156" xlink:href="#DejaVuSans-31"/>
       <use x="159.033203" xlink:href="#DejaVuSans-32"/>
       <use x="222.65625" xlink:href="#DejaVuSans-35"/>
      </g>
     </g>
    </g>
    <g id="ytick_6">
     <g id="line2d_11">
      <g>
       <use style="stroke:#000000;stroke-width:0.8;" x="58.5" xlink:href="#m48d29ce82b" y="70.809715"/>
      </g>
     </g>
     <g id="text_13">
      <!-- 0.150 -->
      <g transform="translate(22.871875 74.608934)scale(0.1 -0.1)">
       <use xlink:href="#DejaVuSans-30"/>
       <use x="63.623047" xlink:href="#DejaVuSans-2e"/>
       <use x="95.410156" xlink:href="#DejaVuSans-31"/>
       <use x="159.033203" xlink:href="#DejaVuSans-35"/>
       <use x="222.65625" xlink:href="#DejaVuSans-30"/>
      </g>
     </g>
    </g>
    <g id="ytick_7">
     <g id="line2d_12">
      <g>
       <use style="stroke:#000000;stroke-width:0.8;" x="58.5" xlink:href="#m48d29ce82b" y="47.881646"/>
      </g>
     </g>
     <g id="text_14">
      <!-- 0.175 -->
      <g transform="translate(22.871875 51.680865)scale(0.1 -0.1)">
       <use xlink:href="#DejaVuSans-30"/>
       <use x="63.623047" xlink:href="#DejaVuSans-2e"/>
       <use x="95.410156" xlink:href="#DejaVuSans-31"/>
       <use x="159.033203" xlink:href="#DejaVuSans-37"/>
       <use x="222.65625" xlink:href="#DejaVuSans-35"/>
      </g>
     </g>
    </g>
   </g>
   <g id="line2d_13">
    <path clip-path="url(#pe231ae253c)" d="M 65.827273 190.006043 
L 70.554545 189.711191 
L 75.281818 188.724761 
L 80.009091 184.3845 
L 89.463636 173.257321 
L 98.918182 163.513754 
L 108.372727 152.677555 
L 117.827273 141.239709 
L 127.281818 132.269125 
L 136.736364 120.625608 
L 155.645455 98.086746 
L 174.554545 77.378093 
L 193.463636 60.162058 
L 212.372727 36.27 
" style="fill:none;stroke:#1f77b4;stroke-linecap:square;"/>
   </g>
   <g id="line2d_14">
    <path clip-path="url(#pe231ae253c)" d="M 65.827273 199.731108 
L 70.554545 200.07 
L 75.281818 199.761205 
L 80.009091 197.361725 
L 89.463636 193.385379 
L 98.918182 188.886765 
L 108.372727 184.9425 
L 117.827273 180.574298 
L 127.281818 176.966663 
L 136.736364 172.339377 
L 155.645455 162.751101 
L 174.554545 154.214702 
L 193.463636 147.50111 
L 212.372727 137.642832 
" style="fill:none;stroke:#aec7e8;stroke-linecap:square;"/>
   </g>
   <g id="line2d_15">
    <path clip-path="url(#pe231ae253c)" d="M 65.827273 173.521588 
L 70.554545 173.533736 
L 75.281818 173.36636 
L 80.009091 173.376323 
L 89.463636 171.111294 
L 98.918182 167.324088 
L 108.372727 158.729412 
L 117.827273 148.773557 
L 127.281818 141.490846 
L 136.736364 132.154189 
L 155.645455 113.540169 
L 174.554545 95.549172 
L 193.463636 81.00309 
L 212.372727 61.810492 
" style="fill:none;stroke:#ff7f0e;stroke-linecap:square;"/>
   </g>
   <g id="line2d_16">
    <path clip-path="url(#pe231ae253c)" d="M 65.827273 191.552424 
L 70.554545 191.872331 
L 75.281818 191.660417 
L 80.009091 187.44003 
L 89.463636 178.957271 
L 98.918182 170.889479 
L 108.372727 162.140765 
L 117.827273 152.472512 
L 127.281818 145.369568 
L 136.736364 135.270827 
L 155.645455 116.050439 
L 174.554545 98.673666 
L 193.463636 85.149645 
L 212.372727 64.854534 
" style="fill:none;stroke:#ffbb78;stroke-linecap:square;"/>
   </g>
   <g id="patch_3">
    <path d="M 58.5 208.26 
L 58.5 28.08 
" style="fill:none;stroke:#000000;stroke-linecap:square;stroke-linejoin:miter;stroke-width:0.8;"/>
   </g>
   <g id="patch_4">
    <path d="M 219.7 208.26 
L 219.7 28.08 
" style="fill:none;stroke:#000000;stroke-linecap:square;stroke-linejoin:miter;stroke-width:0.8;"/>
   </g>
   <g id="patch_5">
    <path d="M 58.5 208.26 
L 219.7 208.26 
" style="fill:none;stroke:#000000;stroke-linecap:square;stroke-linejoin:miter;stroke-width:0.8;"/>
   </g>
   <g id="patch_6">
    <path d="M 58.5 28.08 
L 219.7 28.08 
" style="fill:none;stroke:#000000;stroke-linecap:square;stroke-linejoin:miter;stroke-width:0.8;"/>
   </g>
   <g id="legend_1">
    <g id="patch_7">
     <path d="M 62.7 68.1075 
L 139.693125 68.1075 
Q 140.893125 68.1075 140.893125 66.9075 
L 140.893125 32.28 
Q 140.893125 31.08 139.693125 31.08 
L 62.7 31.08 
Q 61.5 31.08 61.5 32.28 
L 61.5 66.9075 
Q 61.5 68.1075 62.7 68.1075 
z
" style="fill:#ffffff;opacity:0.8;stroke:#cccccc;stroke-linejoin:miter;"/>
    </g>
    <g id="PathCollection_5">
     <g>
      <use style="fill:#1f77b4;stroke:#1f77b4;" x="69.9" xlink:href="#m1001a613d0" y="36.464062"/>
     </g>
    </g>
    <g id="text_15">
     <!-- Albert -->
     <g transform="translate(80.7 38.039062)scale(0.06 -0.06)">
      <defs>
       <path d="M 603 4863 
L 1178 4863 
L 1178 0 
L 603 0 
L 603 4863 
z
" id="DejaVuSans-6c" transform="scale(0.015625)"/>
       <path d="M 3116 1747 
Q 3116 2381 2855 2742 
Q 2594 3103 2138 3103 
Q 1681 3103 1420 2742 
Q 1159 2381 1159 1747 
Q 1159 1113 1420 752 
Q 1681 391 2138 391 
Q 2594 391 2855 752 
Q 3116 1113 3116 1747 
z
M 1159 2969 
Q 1341 3281 1617 3432 
Q 1894 3584 2278 3584 
Q 2916 3584 3314 3078 
Q 3713 2572 3713 1747 
Q 3713 922 3314 415 
Q 2916 -91 2278 -91 
Q 1894 -91 1617 61 
Q 1341 213 1159 525 
L 1159 0 
L 581 0 
L 581 4863 
L 1159 4863 
L 1159 2969 
z
" id="DejaVuSans-62" transform="scale(0.015625)"/>
       <path d="M 2631 2963 
Q 2534 3019 2420 3045 
Q 2306 3072 2169 3072 
Q 1681 3072 1420 2755 
Q 1159 2438 1159 1844 
L 1159 0 
L 581 0 
L 581 3500 
L 1159 3500 
L 1159 2956 
Q 1341 3275 1631 3429 
Q 1922 3584 2338 3584 
Q 2397 3584 2469 3576 
Q 2541 3569 2628 3553 
L 2631 2963 
z
" id="DejaVuSans-72" transform="scale(0.015625)"/>
       <path d="M 1172 4494 
L 1172 3500 
L 2356 3500 
L 2356 3053 
L 1172 3053 
L 1172 1153 
Q 1172 725 1289 603 
Q 1406 481 1766 481 
L 2356 481 
L 2356 0 
L 1766 0 
Q 1100 0 847 248 
Q 594 497 594 1153 
L 594 3053 
L 172 3053 
L 172 3500 
L 594 3500 
L 594 4494 
L 1172 4494 
z
" id="DejaVuSans-74" transform="scale(0.015625)"/>
      </defs>
      <use xlink:href="#DejaVuSans-41"/>
      <use x="68.408203" xlink:href="#DejaVuSans-6c"/>
      <use x="96.191406" xlink:href="#DejaVuSans-62"/>
      <use x="159.667969" xlink:href="#DejaVuSans-65"/>
      <use x="221.191406" xlink:href="#DejaVuSans-72"/>
      <use x="262.304688" xlink:href="#DejaVuSans-74"/>
     </g>
    </g>
    <g id="PathCollection_6">
     <g>
      <use style="fill:#aec7e8;stroke:#aec7e8;" x="69.9" xlink:href="#mc00d7e932c" y="45.270937"/>
     </g>
    </g>
    <g id="text_16">
     <!-- DistilBERT -->
     <g transform="translate(80.7 46.845937)scale(0.06 -0.06)">
      <defs>
       <path d="M 1259 4147 
L 1259 519 
L 2022 519 
Q 2988 519 3436 956 
Q 3884 1394 3884 2338 
Q 3884 3275 3436 3711 
Q 2988 4147 2022 4147 
L 1259 4147 
z
M 628 4666 
L 1925 4666 
Q 3281 4666 3915 4102 
Q 4550 3538 4550 2338 
Q 4550 1131 3912 565 
Q 3275 0 1925 0 
L 628 0 
L 628 4666 
z
" id="DejaVuSans-44" transform="scale(0.015625)"/>
       <path d="M 603 3500 
L 1178 3500 
L 1178 0 
L 603 0 
L 603 3500 
z
M 603 4863 
L 1178 4863 
L 1178 4134 
L 603 4134 
L 603 4863 
z
" id="DejaVuSans-69" transform="scale(0.015625)"/>
       <path d="M 1259 2228 
L 1259 519 
L 2272 519 
Q 2781 519 3026 730 
Q 3272 941 3272 1375 
Q 3272 1813 3026 2020 
Q 2781 2228 2272 2228 
L 1259 2228 
z
M 1259 4147 
L 1259 2741 
L 2194 2741 
Q 2656 2741 2882 2914 
Q 3109 3088 3109 3444 
Q 3109 3797 2882 3972 
Q 2656 4147 2194 4147 
L 1259 4147 
z
M 628 4666 
L 2241 4666 
Q 2963 4666 3353 4366 
Q 3744 4066 3744 3513 
Q 3744 3084 3544 2831 
Q 3344 2578 2956 2516 
Q 3422 2416 3680 2098 
Q 3938 1781 3938 1306 
Q 3938 681 3513 340 
Q 3088 0 2303 0 
L 628 0 
L 628 4666 
z
" id="DejaVuSans-42" transform="scale(0.015625)"/>
       <path d="M 628 4666 
L 3578 4666 
L 3578 4134 
L 1259 4134 
L 1259 2753 
L 3481 2753 
L 3481 2222 
L 1259 2222 
L 1259 531 
L 3634 531 
L 3634 0 
L 628 0 
L 628 4666 
z
" id="DejaVuSans-45" transform="scale(0.015625)"/>
       <path d="M 2841 2188 
Q 3044 2119 3236 1894 
Q 3428 1669 3622 1275 
L 4263 0 
L 3584 0 
L 2988 1197 
Q 2756 1666 2539 1819 
Q 2322 1972 1947 1972 
L 1259 1972 
L 1259 0 
L 628 0 
L 628 4666 
L 2053 4666 
Q 2853 4666 3247 4331 
Q 3641 3997 3641 3322 
Q 3641 2881 3436 2590 
Q 3231 2300 2841 2188 
z
M 1259 4147 
L 1259 2491 
L 2053 2491 
Q 2509 2491 2742 2702 
Q 2975 2913 2975 3322 
Q 2975 3731 2742 3939 
Q 2509 4147 2053 4147 
L 1259 4147 
z
" id="DejaVuSans-52" transform="scale(0.015625)"/>
       <path d="M -19 4666 
L 3928 4666 
L 3928 4134 
L 2272 4134 
L 2272 0 
L 1638 0 
L 1638 4134 
L -19 4134 
L -19 4666 
z
" id="DejaVuSans-54" transform="scale(0.015625)"/>
      </defs>
      <use xlink:href="#DejaVuSans-44"/>
      <use x="77.001953" xlink:href="#DejaVuSans-69"/>
      <use x="104.785156" xlink:href="#DejaVuSans-73"/>
      <use x="156.884766" xlink:href="#DejaVuSans-74"/>
      <use x="196.09375" xlink:href="#DejaVuSans-69"/>
      <use x="223.876953" xlink:href="#DejaVuSans-6c"/>
      <use x="251.660156" xlink:href="#DejaVuSans-42"/>
      <use x="320.263672" xlink:href="#DejaVuSans-45"/>
      <use x="383.447266" xlink:href="#DejaVuSans-52"/>
      <use x="445.679688" xlink:href="#DejaVuSans-54"/>
     </g>
    </g>
    <g id="PathCollection_7">
     <g>
      <use style="fill:#ff7f0e;stroke:#ff7f0e;" x="69.9" xlink:href="#ma0775ec78a" y="54.077813"/>
     </g>
    </g>
    <g id="text_17">
     <!-- Funnel Transformer -->
     <g transform="translate(80.7 55.652813)scale(0.06 -0.06)">
      <defs>
       <path d="M 628 4666 
L 3309 4666 
L 3309 4134 
L 1259 4134 
L 1259 2759 
L 3109 2759 
L 3109 2228 
L 1259 2228 
L 1259 0 
L 628 0 
L 628 4666 
z
" id="DejaVuSans-46" transform="scale(0.015625)"/>
       <path d="M 544 1381 
L 544 3500 
L 1119 3500 
L 1119 1403 
Q 1119 906 1312 657 
Q 1506 409 1894 409 
Q 2359 409 2629 706 
Q 2900 1003 2900 1516 
L 2900 3500 
L 3475 3500 
L 3475 0 
L 2900 0 
L 2900 538 
Q 2691 219 2414 64 
Q 2138 -91 1772 -91 
Q 1169 -91 856 284 
Q 544 659 544 1381 
z
M 1991 3584 
L 1991 3584 
z
" id="DejaVuSans-75" transform="scale(0.015625)"/>
       <path d="M 3513 2113 
L 3513 0 
L 2938 0 
L 2938 2094 
Q 2938 2591 2744 2837 
Q 2550 3084 2163 3084 
Q 1697 3084 1428 2787 
Q 1159 2491 1159 1978 
L 1159 0 
L 581 0 
L 581 3500 
L 1159 3500 
L 1159 2956 
Q 1366 3272 1645 3428 
Q 1925 3584 2291 3584 
Q 2894 3584 3203 3211 
Q 3513 2838 3513 2113 
z
" id="DejaVuSans-6e" transform="scale(0.015625)"/>
       <path id="DejaVuSans-20" transform="scale(0.015625)"/>
       <path d="M 2194 1759 
Q 1497 1759 1228 1600 
Q 959 1441 959 1056 
Q 959 750 1161 570 
Q 1363 391 1709 391 
Q 2188 391 2477 730 
Q 2766 1069 2766 1631 
L 2766 1759 
L 2194 1759 
z
M 3341 1997 
L 3341 0 
L 2766 0 
L 2766 531 
Q 2569 213 2275 61 
Q 1981 -91 1556 -91 
Q 1019 -91 701 211 
Q 384 513 384 1019 
Q 384 1609 779 1909 
Q 1175 2209 1959 2209 
L 2766 2209 
L 2766 2266 
Q 2766 2663 2505 2880 
Q 2244 3097 1772 3097 
Q 1472 3097 1187 3025 
Q 903 2953 641 2809 
L 641 3341 
Q 956 3463 1253 3523 
Q 1550 3584 1831 3584 
Q 2591 3584 2966 3190 
Q 3341 2797 3341 1997 
z
" id="DejaVuSans-61" transform="scale(0.015625)"/>
       <path d="M 2375 4863 
L 2375 4384 
L 1825 4384 
Q 1516 4384 1395 4259 
Q 1275 4134 1275 3809 
L 1275 3500 
L 2222 3500 
L 2222 3053 
L 1275 3053 
L 1275 0 
L 697 0 
L 697 3053 
L 147 3053 
L 147 3500 
L 697 3500 
L 697 3744 
Q 697 4328 969 4595 
Q 1241 4863 1831 4863 
L 2375 4863 
z
" id="DejaVuSans-66" transform="scale(0.015625)"/>
       <path d="M 1959 3097 
Q 1497 3097 1228 2736 
Q 959 2375 959 1747 
Q 959 1119 1226 758 
Q 1494 397 1959 397 
Q 2419 397 2687 759 
Q 2956 1122 2956 1747 
Q 2956 2369 2687 2733 
Q 2419 3097 1959 3097 
z
M 1959 3584 
Q 2709 3584 3137 3096 
Q 3566 2609 3566 1747 
Q 3566 888 3137 398 
Q 2709 -91 1959 -91 
Q 1206 -91 779 398 
Q 353 888 353 1747 
Q 353 2609 779 3096 
Q 1206 3584 1959 3584 
z
" id="DejaVuSans-6f" transform="scale(0.015625)"/>
       <path d="M 3328 2828 
Q 3544 3216 3844 3400 
Q 4144 3584 4550 3584 
Q 5097 3584 5394 3201 
Q 5691 2819 5691 2113 
L 5691 0 
L 5113 0 
L 5113 2094 
Q 5113 2597 4934 2840 
Q 4756 3084 4391 3084 
Q 3944 3084 3684 2787 
Q 3425 2491 3425 1978 
L 3425 0 
L 2847 0 
L 2847 2094 
Q 2847 2600 2669 2842 
Q 2491 3084 2119 3084 
Q 1678 3084 1418 2786 
Q 1159 2488 1159 1978 
L 1159 0 
L 581 0 
L 581 3500 
L 1159 3500 
L 1159 2956 
Q 1356 3278 1631 3431 
Q 1906 3584 2284 3584 
Q 2666 3584 2933 3390 
Q 3200 3197 3328 2828 
z
" id="DejaVuSans-6d" transform="scale(0.015625)"/>
      </defs>
      <use xlink:href="#DejaVuSans-46"/>
      <use x="52.019531" xlink:href="#DejaVuSans-75"/>
      <use x="115.398438" xlink:href="#DejaVuSans-6e"/>
      <use x="178.777344" xlink:href="#DejaVuSans-6e"/>
      <use x="242.15625" xlink:href="#DejaVuSans-65"/>
      <use x="303.679688" xlink:href="#DejaVuSans-6c"/>
      <use x="331.462891" xlink:href="#DejaVuSans-20"/>
      <use x="363.25" xlink:href="#DejaVuSans-54"/>
      <use x="409.583984" xlink:href="#DejaVuSans-72"/>
      <use x="450.697266" xlink:href="#DejaVuSans-61"/>
      <use x="511.976562" xlink:href="#DejaVuSans-6e"/>
      <use x="575.355469" xlink:href="#DejaVuSans-73"/>
      <use x="627.455078" xlink:href="#DejaVuSans-66"/>
      <use x="662.660156" xlink:href="#DejaVuSans-6f"/>
      <use x="723.841797" xlink:href="#DejaVuSans-72"/>
      <use x="763.205078" xlink:href="#DejaVuSans-6d"/>
      <use x="860.617188" xlink:href="#DejaVuSans-65"/>
      <use x="922.140625" xlink:href="#DejaVuSans-72"/>
     </g>
    </g>
    <g id="PathCollection_8">
     <g>
      <use style="fill:#ffbb78;stroke:#ffbb78;" x="69.9" xlink:href="#m7bcac59e66" y="62.884687"/>
     </g>
    </g>
    <g id="text_18">
     <!-- BERT-Base -->
     <g transform="translate(80.7 64.459688)scale(0.06 -0.06)">
      <defs>
       <path d="M 313 2009 
L 1997 2009 
L 1997 1497 
L 313 1497 
L 313 2009 
z
" id="DejaVuSans-2d" transform="scale(0.015625)"/>
      </defs>
      <use xlink:href="#DejaVuSans-42"/>
      <use x="68.603516" xlink:href="#DejaVuSans-45"/>
      <use x="131.787109" xlink:href="#DejaVuSans-52"/>
      <use x="194.019531" xlink:href="#DejaVuSans-54"/>
      <use x="245.978516" xlink:href="#DejaVuSans-2d"/>
      <use x="278.4375" xlink:href="#DejaVuSans-42"/>
      <use x="347.041016" xlink:href="#DejaVuSans-61"/>
      <use x="408.320312" xlink:href="#DejaVuSans-73"/>
      <use x="460.419922" xlink:href="#DejaVuSans-65"/>
     </g>
    </g>
   </g>
  </g>
  <g id="axes_2">
   <g id="patch_8">
    <path d="M 260 208.26 
L 421.2 208.26 
L 421.2 28.08 
L 260 28.08 
z
" style="fill:#ffffff;"/>
   </g>
   <g id="PathCollection_9">
    <g>
     <use style="fill:#1f77b4;stroke:#1f77b4;" x="267.444567" xlink:href="#m1001a613d0" y="199.909021"/>
     <use style="fill:#1f77b4;stroke:#1f77b4;" x="267.590688" xlink:href="#m1001a613d0" y="199.917535"/>
     <use style="fill:#1f77b4;stroke:#1f77b4;" x="267.736809" xlink:href="#m1001a613d0" y="199.760263"/>
     <use style="fill:#1f77b4;stroke:#1f77b4;" x="267.88293" xlink:href="#m1001a613d0" y="199.530211"/>
     <use style="fill:#1f77b4;stroke:#1f77b4;" x="268.175172" xlink:href="#m1001a613d0" y="198.665997"/>
     <use style="fill:#1f77b4;stroke:#1f77b4;" x="268.467414" xlink:href="#m1001a613d0" y="198.482247"/>
     <use style="fill:#1f77b4;stroke:#1f77b4;" x="268.759656" xlink:href="#m1001a613d0" y="197.83995"/>
     <use style="fill:#1f77b4;stroke:#1f77b4;" x="269.051898" xlink:href="#m1001a613d0" y="197.157469"/>
     <use style="fill:#1f77b4;stroke:#1f77b4;" x="269.34414" xlink:href="#m1001a613d0" y="196.705817"/>
     <use style="fill:#1f77b4;stroke:#1f77b4;" x="269.636382" xlink:href="#m1001a613d0" y="196.420832"/>
     <use style="fill:#1f77b4;stroke:#1f77b4;" x="270.220866" xlink:href="#m1001a613d0" y="194.899968"/>
     <use style="fill:#1f77b4;stroke:#1f77b4;" x="270.80535" xlink:href="#m1001a613d0" y="193.833832"/>
     <use style="fill:#1f77b4;stroke:#1f77b4;" x="271.389834" xlink:href="#m1001a613d0" y="192.405709"/>
     <use style="fill:#1f77b4;stroke:#1f77b4;" x="271.974318" xlink:href="#m1001a613d0" y="191.593665"/>
     <use style="fill:#1f77b4;stroke:#1f77b4;" x="274.312255" xlink:href="#m1001a613d0" y="186.409217"/>
     <use style="fill:#1f77b4;stroke:#1f77b4;" x="276.650191" xlink:href="#m1001a613d0" y="181.652198"/>
    </g>
   </g>
   <g id="PathCollection_10">
    <g>
     <use style="fill:#aec7e8;stroke:#aec7e8;" x="267.444567" xlink:href="#mc00d7e932c" y="196.566882"/>
     <use style="fill:#aec7e8;stroke:#aec7e8;" x="267.590688" xlink:href="#mc00d7e932c" y="196.673876"/>
     <use style="fill:#aec7e8;stroke:#aec7e8;" x="267.736809" xlink:href="#mc00d7e932c" y="196.645659"/>
     <use style="fill:#aec7e8;stroke:#aec7e8;" x="267.88293" xlink:href="#mc00d7e932c" y="196.471811"/>
     <use style="fill:#aec7e8;stroke:#aec7e8;" x="268.175172" xlink:href="#mc00d7e932c" y="193.950658"/>
     <use style="fill:#aec7e8;stroke:#aec7e8;" x="268.467414" xlink:href="#mc00d7e932c" y="192.565362"/>
     <use style="fill:#aec7e8;stroke:#aec7e8;" x="268.759656" xlink:href="#mc00d7e932c" y="190.18954"/>
     <use style="fill:#aec7e8;stroke:#aec7e8;" x="269.051898" xlink:href="#mc00d7e932c" y="187.741622"/>
     <use style="fill:#aec7e8;stroke:#aec7e8;" x="269.34414" xlink:href="#mc00d7e932c" y="185.818524"/>
     <use style="fill:#aec7e8;stroke:#aec7e8;" x="269.636382" xlink:href="#mc00d7e932c" y="184.418455"/>
     <use style="fill:#aec7e8;stroke:#aec7e8;" x="270.220866" xlink:href="#mc00d7e932c" y="179.9638"/>
     <use style="fill:#aec7e8;stroke:#aec7e8;" x="270.80535" xlink:href="#mc00d7e932c" y="175.850437"/>
     <use style="fill:#aec7e8;stroke:#aec7e8;" x="271.389834" xlink:href="#mc00d7e932c" y="171.50693"/>
     <use style="fill:#aec7e8;stroke:#aec7e8;" x="271.974318" xlink:href="#mc00d7e932c" y="168.119146"/>
     <use style="fill:#aec7e8;stroke:#aec7e8;" x="274.312255" xlink:href="#mc00d7e932c" y="151.389146"/>
     <use style="fill:#aec7e8;stroke:#aec7e8;" x="276.650191" xlink:href="#mc00d7e932c" y="135.120308"/>
    </g>
   </g>
   <g id="PathCollection_11">
    <g>
     <use style="fill:#ff7f0e;stroke:#ff7f0e;" x="267.444567" xlink:href="#ma0775ec78a" y="192.174873"/>
     <use style="fill:#ff7f0e;stroke:#ff7f0e;" x="267.590688" xlink:href="#ma0775ec78a" y="192.304746"/>
     <use style="fill:#ff7f0e;stroke:#ff7f0e;" x="267.736809" xlink:href="#ma0775ec78a" y="192.151869"/>
     <use style="fill:#ff7f0e;stroke:#ff7f0e;" x="267.88293" xlink:href="#ma0775ec78a" y="192.237969"/>
     <use style="fill:#ff7f0e;stroke:#ff7f0e;" x="268.175172" xlink:href="#ma0775ec78a" y="188.301946"/>
     <use style="fill:#ff7f0e;stroke:#ff7f0e;" x="268.467414" xlink:href="#ma0775ec78a" y="186.309028"/>
     <use style="fill:#ff7f0e;stroke:#ff7f0e;" x="268.759656" xlink:href="#ma0775ec78a" y="181.879106"/>
     <use style="fill:#ff7f0e;stroke:#ff7f0e;" x="269.051898" xlink:href="#ma0775ec78a" y="177.884302"/>
     <use style="fill:#ff7f0e;stroke:#ff7f0e;" x="269.34414" xlink:href="#ma0775ec78a" y="174.929287"/>
     <use style="fill:#ff7f0e;stroke:#ff7f0e;" x="269.636382" xlink:href="#ma0775ec78a" y="172.706148"/>
     <use style="fill:#ff7f0e;stroke:#ff7f0e;" x="270.220866" xlink:href="#ma0775ec78a" y="164.44386"/>
     <use style="fill:#ff7f0e;stroke:#ff7f0e;" x="270.80535" xlink:href="#ma0775ec78a" y="157.964303"/>
     <use style="fill:#ff7f0e;stroke:#ff7f0e;" x="271.389834" xlink:href="#ma0775ec78a" y="150.117653"/>
     <use style="fill:#ff7f0e;stroke:#ff7f0e;" x="271.974318" xlink:href="#ma0775ec78a" y="144.96099"/>
     <use style="fill:#ff7f0e;stroke:#ff7f0e;" x="274.312255" xlink:href="#ma0775ec78a" y="116.949406"/>
     <use style="fill:#ff7f0e;stroke:#ff7f0e;" x="276.650191" xlink:href="#ma0775ec78a" y="89.618192"/>
    </g>
   </g>
   <g id="PathCollection_12">
    <g>
     <use style="fill:#ffbb78;stroke:#ffbb78;" x="267.444567" xlink:href="#m7bcac59e66" y="187.313099"/>
     <use style="fill:#ffbb78;stroke:#ffbb78;" x="267.590688" xlink:href="#m7bcac59e66" y="187.431021"/>
     <use style="fill:#ffbb78;stroke:#ffbb78;" x="267.736809" xlink:href="#m7bcac59e66" y="187.639536"/>
     <use style="fill:#ffbb78;stroke:#ffbb78;" x="267.88293" xlink:href="#m7bcac59e66" y="187.382001"/>
     <use style="fill:#ffbb78;stroke:#ffbb78;" x="268.175172" xlink:href="#m7bcac59e66" y="182.284136"/>
     <use style="fill:#ffbb78;stroke:#ffbb78;" x="268.467414" xlink:href="#m7bcac59e66" y="179.591266"/>
     <use style="fill:#ffbb78;stroke:#ffbb78;" x="268.759656" xlink:href="#m7bcac59e66" y="172.837306"/>
     <use style="fill:#ffbb78;stroke:#ffbb78;" x="269.051898" xlink:href="#m7bcac59e66" y="167.052975"/>
     <use style="fill:#ffbb78;stroke:#ffbb78;" x="269.34414" xlink:href="#m7bcac59e66" y="162.845613"/>
     <use style="fill:#ffbb78;stroke:#ffbb78;" x="269.636382" xlink:href="#m7bcac59e66" y="159.916403"/>
     <use style="fill:#ffbb78;stroke:#ffbb78;" x="270.220866" xlink:href="#m7bcac59e66" y="147.763233"/>
     <use style="fill:#ffbb78;stroke:#ffbb78;" x="270.80535" xlink:href="#m7bcac59e66" y="138.673763"/>
     <use style="fill:#ffbb78;stroke:#ffbb78;" x="271.389834" xlink:href="#m7bcac59e66" y="126.913594"/>
     <use style="fill:#ffbb78;stroke:#ffbb78;" x="271.974318" xlink:href="#m7bcac59e66" y="119.615778"/>
     <use style="fill:#ffbb78;stroke:#ffbb78;" x="274.312255" xlink:href="#m7bcac59e66" y="80.05344"/>
     <use style="fill:#ffbb78;stroke:#ffbb78;" x="276.650191" xlink:href="#m7bcac59e66" y="40.122513"/>
    </g>
   </g>
   <g id="PathCollection_13">
    <defs>
     <path d="M 0 0.707107 
C 0.187527 0.707107 0.367398 0.632602 0.5 0.5 
C 0.632602 0.367398 0.707107 0.187527 0.707107 0 
C 0.707107 -0.187527 0.632602 -0.367398 0.5 -0.5 
C 0.367398 -0.632602 0.187527 -0.707107 0 -0.707107 
C -0.187527 -0.707107 -0.367398 -0.632602 -0.5 -0.5 
C -0.632602 -0.367398 -0.707107 -0.187527 -0.707107 0 
C -0.707107 0.187527 -0.632602 0.367398 -0.5 0.5 
C -0.367398 0.632602 -0.187527 0.707107 0 0.707107 
z
" id="m2668234fd3" style="stroke:#2ca02c;"/>
    </defs>
    <g>
     <use style="fill:#2ca02c;stroke:#2ca02c;" x="267.444506" xlink:href="#m2668234fd3" y="195.718736"/>
     <use style="fill:#2ca02c;stroke:#2ca02c;" x="267.590566" xlink:href="#m2668234fd3" y="195.619192"/>
     <use style="fill:#2ca02c;stroke:#2ca02c;" x="267.736627" xlink:href="#m2668234fd3" y="195.591251"/>
     <use style="fill:#2ca02c;stroke:#2ca02c;" x="267.882687" xlink:href="#m2668234fd3" y="195.766428"/>
     <use style="fill:#2ca02c;stroke:#2ca02c;" x="268.174807" xlink:href="#m2668234fd3" y="194.862849"/>
     <use style="fill:#2ca02c;stroke:#2ca02c;" x="268.466927" xlink:href="#m2668234fd3" y="192.360515"/>
     <use style="fill:#2ca02c;stroke:#2ca02c;" x="268.759048" xlink:href="#m2668234fd3" y="191.038345"/>
     <use style="fill:#2ca02c;stroke:#2ca02c;" x="269.051168" xlink:href="#m2668234fd3" y="189.301399"/>
     <use style="fill:#2ca02c;stroke:#2ca02c;" x="269.343288" xlink:href="#m2668234fd3" y="188.154455"/>
     <use style="fill:#2ca02c;stroke:#2ca02c;" x="269.635409" xlink:href="#m2668234fd3" y="185.510737"/>
     <use style="fill:#2ca02c;stroke:#2ca02c;" x="270.219649" xlink:href="#m2668234fd3" y="181.664995"/>
     <use style="fill:#2ca02c;stroke:#2ca02c;" x="270.80389" xlink:href="#m2668234fd3" y="177.931062"/>
     <use style="fill:#2ca02c;stroke:#2ca02c;" x="271.38813" xlink:href="#m2668234fd3" y="174.948814"/>
     <use style="fill:#2ca02c;stroke:#2ca02c;" x="271.972371" xlink:href="#m2668234fd3" y="170.947747"/>
     <use style="fill:#2ca02c;stroke:#2ca02c;" x="274.309333" xlink:href="#m2668234fd3" y="155.727286"/>
     <use style="fill:#2ca02c;stroke:#2ca02c;" x="276.646296" xlink:href="#m2668234fd3" y="141.536209"/>
    </g>
   </g>
   <g id="PathCollection_14">
    <defs>
     <path d="M 0 0.707107 
C 0.187527 0.707107 0.367398 0.632602 0.5 0.5 
C 0.632602 0.367398 0.707107 0.187527 0.707107 0 
C 0.707107 -0.187527 0.632602 -0.367398 0.5 -0.5 
C 0.367398 -0.632602 0.187527 -0.707107 0 -0.707107 
C -0.187527 -0.707107 -0.367398 -0.632602 -0.5 -0.5 
C -0.632602 -0.367398 -0.707107 -0.187527 -0.707107 0 
C -0.707107 0.187527 -0.632602 0.367398 -0.5 0.5 
C -0.367398 0.632602 -0.187527 0.707107 0 0.707107 
z
" id="m963252570e" style="stroke:#98df8a;"/>
    </defs>
    <g>
     <use style="fill:#98df8a;stroke:#98df8a;" x="269.588669" xlink:href="#m963252570e" y="198.441014"/>
     <use style="fill:#98df8a;stroke:#98df8a;" x="271.878892" xlink:href="#m963252570e" y="195.776063"/>
     <use style="fill:#98df8a;stroke:#98df8a;" x="274.169116" xlink:href="#m963252570e" y="193.078359"/>
     <use style="fill:#98df8a;stroke:#98df8a;" x="276.459339" xlink:href="#m963252570e" y="191.25016"/>
     <use style="fill:#98df8a;stroke:#98df8a;" x="281.039785" xlink:href="#m963252570e" y="189.021025"/>
     <use style="fill:#98df8a;stroke:#98df8a;" x="285.620231" xlink:href="#m963252570e" y="186.873357"/>
     <use style="fill:#98df8a;stroke:#98df8a;" x="290.200678" xlink:href="#m963252570e" y="179.065552"/>
     <use style="fill:#98df8a;stroke:#98df8a;" x="294.781124" xlink:href="#m963252570e" y="177.259206"/>
     <use style="fill:#98df8a;stroke:#98df8a;" x="299.36157" xlink:href="#m963252570e" y="174.946988"/>
     <use style="fill:#98df8a;stroke:#98df8a;" x="303.942016" xlink:href="#m963252570e" y="173.213322"/>
     <use style="fill:#98df8a;stroke:#98df8a;" x="313.102909" xlink:href="#m963252570e" y="162.573148"/>
     <use style="fill:#98df8a;stroke:#98df8a;" x="322.263802" xlink:href="#m963252570e" y="159.138103"/>
     <use style="fill:#98df8a;stroke:#98df8a;" x="331.424694" xlink:href="#m963252570e" y="148.517941"/>
     <use style="fill:#98df8a;stroke:#98df8a;" x="340.585587" xlink:href="#m963252570e" y="145.076738"/>
     <use style="fill:#98df8a;stroke:#98df8a;" x="377.229157" xlink:href="#m963252570e" y="115.190637"/>
     <use style="fill:#98df8a;stroke:#98df8a;" x="413.872727" xlink:href="#m963252570e" y="87.145865"/>
    </g>
   </g>
   <g id="PathCollection_15">
    <defs>
     <path d="M 0 0.707107 
C 0.187527 0.707107 0.367398 0.632602 0.5 0.5 
C 0.632602 0.367398 0.707107 0.187527 0.707107 0 
C 0.707107 -0.187527 0.632602 -0.367398 0.5 -0.5 
C 0.367398 -0.632602 0.187527 -0.707107 0 -0.707107 
C -0.187527 -0.707107 -0.367398 -0.632602 -0.5 -0.5 
C -0.632602 -0.367398 -0.707107 -0.187527 -0.707107 0 
C -0.707107 0.187527 -0.632602 0.367398 -0.5 0.5 
C -0.367398 0.632602 -0.187527 0.707107 0 0.707107 
z
" id="m4855653e77" style="stroke:#d62728;"/>
    </defs>
    <g>
     <use style="fill:#d62728;stroke:#d62728;" x="267.871002" xlink:href="#m4855653e77" y="196.690638"/>
     <use style="fill:#d62728;stroke:#d62728;" x="268.443558" xlink:href="#m4855653e77" y="195.800581"/>
     <use style="fill:#d62728;stroke:#d62728;" x="269.016113" xlink:href="#m4855653e77" y="192.75093"/>
     <use style="fill:#d62728;stroke:#d62728;" x="269.588669" xlink:href="#m4855653e77" y="191.153281"/>
     <use style="fill:#d62728;stroke:#d62728;" x="270.733781" xlink:href="#m4855653e77" y="187.424424"/>
     <use style="fill:#d62728;stroke:#d62728;" x="271.878892" xlink:href="#m4855653e77" y="185.136654"/>
     <use style="fill:#d62728;stroke:#d62728;" x="273.024004" xlink:href="#m4855653e77" y="178.538119"/>
     <use style="fill:#d62728;stroke:#d62728;" x="274.169116" xlink:href="#m4855653e77" y="174.948527"/>
     <use style="fill:#d62728;stroke:#d62728;" x="275.314227" xlink:href="#m4855653e77" y="171.583125"/>
     <use style="fill:#d62728;stroke:#d62728;" x="276.459339" xlink:href="#m4855653e77" y="169.107851"/>
     <use style="fill:#d62728;stroke:#d62728;" x="278.749562" xlink:href="#m4855653e77" y="160.065278"/>
     <use style="fill:#d62728;stroke:#d62728;" x="281.039785" xlink:href="#m4855653e77" y="153.996883"/>
     <use style="fill:#d62728;stroke:#d62728;" x="283.330008" xlink:href="#m4855653e77" y="144.442241"/>
     <use style="fill:#d62728;stroke:#d62728;" x="285.620231" xlink:href="#m4855653e77" y="139.180602"/>
     <use style="fill:#d62728;stroke:#d62728;" x="294.781124" xlink:href="#m4855653e77" y="108.763189"/>
     <use style="fill:#d62728;stroke:#d62728;" x="303.942016" xlink:href="#m4855653e77" y="78.253303"/>
    </g>
   </g>
   <g id="PathCollection_16">
    <defs>
     <path d="M 0 0.707107 
C 0.187527 0.707107 0.367398 0.632602 0.5 0.5 
C 0.632602 0.367398 0.707107 0.187527 0.707107 0 
C 0.707107 -0.187527 0.632602 -0.367398 0.5 -0.5 
C 0.367398 -0.632602 0.187527 -0.707107 0 -0.707107 
C -0.187527 -0.707107 -0.367398 -0.632602 -0.5 -0.5 
C -0.632602 -0.367398 -0.707107 -0.187527 -0.707107 0 
C -0.707107 0.187527 -0.632602 0.367398 -0.5 0.5 
C -0.367398 0.632602 -0.187527 0.707107 0 0.707107 
z
" id="mdd8e3ae235" style="stroke:#ff9896;"/>
    </defs>
    <g>
     <use style="fill:#ff9896;stroke:#ff9896;" x="267.327273" xlink:href="#mdd8e3ae235" y="197.33337"/>
     <use style="fill:#ff9896;stroke:#ff9896;" x="267.356099" xlink:href="#mdd8e3ae235" y="196.943132"/>
     <use style="fill:#ff9896;stroke:#ff9896;" x="267.384926" xlink:href="#mdd8e3ae235" y="196.933886"/>
     <use style="fill:#ff9896;stroke:#ff9896;" x="267.413753" xlink:href="#mdd8e3ae235" y="197.008539"/>
     <use style="fill:#ff9896;stroke:#ff9896;" x="267.471406" xlink:href="#mdd8e3ae235" y="196.959427"/>
     <use style="fill:#ff9896;stroke:#ff9896;" x="267.529059" xlink:href="#mdd8e3ae235" y="196.744492"/>
     <use style="fill:#ff9896;stroke:#ff9896;" x="267.586712" xlink:href="#mdd8e3ae235" y="196.723754"/>
     <use style="fill:#ff9896;stroke:#ff9896;" x="267.644365" xlink:href="#mdd8e3ae235" y="196.811885"/>
     <use style="fill:#ff9896;stroke:#ff9896;" x="267.702018" xlink:href="#mdd8e3ae235" y="196.796277"/>
     <use style="fill:#ff9896;stroke:#ff9896;" x="267.759672" xlink:href="#mdd8e3ae235" y="196.725571"/>
     <use style="fill:#ff9896;stroke:#ff9896;" x="267.874978" xlink:href="#mdd8e3ae235" y="196.761785"/>
     <use style="fill:#ff9896;stroke:#ff9896;" x="267.990284" xlink:href="#mdd8e3ae235" y="196.816504"/>
     <use style="fill:#ff9896;stroke:#ff9896;" x="268.105591" xlink:href="#mdd8e3ae235" y="196.858646"/>
     <use style="fill:#ff9896;stroke:#ff9896;" x="268.220897" xlink:href="#mdd8e3ae235" y="196.835134"/>
     <use style="fill:#ff9896;stroke:#ff9896;" x="268.682123" xlink:href="#mdd8e3ae235" y="194.817485"/>
     <use style="fill:#ff9896;stroke:#ff9896;" x="269.143348" xlink:href="#mdd8e3ae235" y="192.74376"/>
    </g>
   </g>
   <g id="PathCollection_17">
    <defs>
     <path d="M 0 0.707107 
C 0.187527 0.707107 0.367398 0.632602 0.5 0.5 
C 0.632602 0.367398 0.707107 0.187527 0.707107 0 
C 0.707107 -0.187527 0.632602 -0.367398 0.5 -0.5 
C 0.367398 -0.632602 0.187527 -0.707107 0 -0.707107 
C -0.187527 -0.707107 -0.367398 -0.632602 -0.5 -0.5 
C -0.632602 -0.367398 -0.707107 -0.187527 -0.707107 0 
C -0.707107 0.187527 -0.632602 0.367398 -0.5 0.5 
C -0.367398 0.632602 -0.187527 0.707107 0 0.707107 
z
" id="m56372559b8" style="stroke:#9467bd;"/>
    </defs>
    <g>
     <use style="fill:#9467bd;stroke:#9467bd;" x="267.506043" xlink:href="#m56372559b8" y="200.07"/>
     <use style="fill:#9467bd;stroke:#9467bd;" x="267.71364" xlink:href="#m56372559b8" y="200.01586"/>
     <use style="fill:#9467bd;stroke:#9467bd;" x="267.921237" xlink:href="#m56372559b8" y="199.946914"/>
     <use style="fill:#9467bd;stroke:#9467bd;" x="268.128834" xlink:href="#m56372559b8" y="199.889953"/>
     <use style="fill:#9467bd;stroke:#9467bd;" x="268.544028" xlink:href="#m56372559b8" y="199.252111"/>
     <use style="fill:#9467bd;stroke:#9467bd;" x="268.959221" xlink:href="#m56372559b8" y="198.552618"/>
     <use style="fill:#9467bd;stroke:#9467bd;" x="269.374415" xlink:href="#m56372559b8" y="197.894195"/>
     <use style="fill:#9467bd;stroke:#9467bd;" x="269.789609" xlink:href="#m56372559b8" y="197.105149"/>
     <use style="fill:#9467bd;stroke:#9467bd;" x="270.204803" xlink:href="#m56372559b8" y="196.436049"/>
     <use style="fill:#9467bd;stroke:#9467bd;" x="270.619997" xlink:href="#m56372559b8" y="195.857131"/>
     <use style="fill:#9467bd;stroke:#9467bd;" x="271.450384" xlink:href="#m56372559b8" y="194.062792"/>
     <use style="fill:#9467bd;stroke:#9467bd;" x="272.280772" xlink:href="#m56372559b8" y="192.77052"/>
     <use style="fill:#9467bd;stroke:#9467bd;" x="273.111159" xlink:href="#m56372559b8" y="191.164343"/>
     <use style="fill:#9467bd;stroke:#9467bd;" x="273.941547" xlink:href="#m56372559b8" y="189.924656"/>
     <use style="fill:#9467bd;stroke:#9467bd;" x="277.263097" xlink:href="#m56372559b8" y="183.965104"/>
     <use style="fill:#9467bd;stroke:#9467bd;" x="280.584648" xlink:href="#m56372559b8" y="177.613861"/>
    </g>
   </g>
   <g id="PathCollection_18">
    <defs>
     <path d="M 0 0.707107 
C 0.187527 0.707107 0.367398 0.632602 0.5 0.5 
C 0.632602 0.367398 0.707107 0.187527 0.707107 0 
C 0.707107 -0.187527 0.632602 -0.367398 0.5 -0.5 
C 0.367398 -0.632602 0.187527 -0.707107 0 -0.707107 
C -0.187527 -0.707107 -0.367398 -0.632602 -0.5 -0.5 
C -0.632602 -0.367398 -0.707107 -0.187527 -0.707107 0 
C -0.707107 0.187527 -0.632602 0.367398 -0.5 0.5 
C -0.367398 0.632602 -0.187527 0.707107 0 0.707107 
z
" id="m32f6971c04" style="stroke:#c5b0d5;"/>
    </defs>
    <g>
     <use style="fill:#c5b0d5;stroke:#c5b0d5;" x="267.358232" xlink:href="#m32f6971c04" y="185.77976"/>
     <use style="fill:#c5b0d5;stroke:#c5b0d5;" x="267.418017" xlink:href="#m32f6971c04" y="185.599421"/>
     <use style="fill:#c5b0d5;stroke:#c5b0d5;" x="267.477803" xlink:href="#m32f6971c04" y="185.274124"/>
     <use style="fill:#c5b0d5;stroke:#c5b0d5;" x="267.537589" xlink:href="#m32f6971c04" y="185.722317"/>
     <use style="fill:#c5b0d5;stroke:#c5b0d5;" x="267.65716" xlink:href="#m32f6971c04" y="184.242623"/>
     <use style="fill:#c5b0d5;stroke:#c5b0d5;" x="267.776732" xlink:href="#m32f6971c04" y="178.465752"/>
     <use style="fill:#c5b0d5;stroke:#c5b0d5;" x="267.896303" xlink:href="#m32f6971c04" y="172.756739"/>
     <use style="fill:#c5b0d5;stroke:#c5b0d5;" x="268.015874" xlink:href="#m32f6971c04" y="167.101593"/>
     <use style="fill:#c5b0d5;stroke:#c5b0d5;" x="268.135446" xlink:href="#m32f6971c04" y="163.606477"/>
     <use style="fill:#c5b0d5;stroke:#c5b0d5;" x="268.255017" xlink:href="#m32f6971c04" y="158.854652"/>
     <use style="fill:#c5b0d5;stroke:#c5b0d5;" x="268.49416" xlink:href="#m32f6971c04" y="148.519945"/>
     <use style="fill:#c5b0d5;stroke:#c5b0d5;" x="268.733302" xlink:href="#m32f6971c04" y="139.959013"/>
     <use style="fill:#c5b0d5;stroke:#c5b0d5;" x="268.972445" xlink:href="#m32f6971c04" y="128.032533"/>
     <use style="fill:#c5b0d5;stroke:#c5b0d5;" x="269.211588" xlink:href="#m32f6971c04" y="117.428717"/>
     <use style="fill:#c5b0d5;stroke:#c5b0d5;" x="270.168158" xlink:href="#m32f6971c04" y="75.892665"/>
     <use style="fill:#c5b0d5;stroke:#c5b0d5;" x="271.124729" xlink:href="#m32f6971c04" y="36.27"/>
    </g>
   </g>
   <g id="PathCollection_19">
    <defs>
     <path d="M 0 0.707107 
C 0.187527 0.707107 0.367398 0.632602 0.5 0.5 
C 0.632602 0.367398 0.707107 0.187527 0.707107 0 
C 0.707107 -0.187527 0.632602 -0.367398 0.5 -0.5 
C 0.367398 -0.632602 0.187527 -0.707107 0 -0.707107 
C -0.187527 -0.707107 -0.367398 -0.632602 -0.5 -0.5 
C -0.632602 -0.367398 -0.707107 -0.187527 -0.707107 0 
C -0.707107 0.187527 -0.632602 0.367398 -0.5 0.5 
C -0.367398 0.632602 -0.187527 0.707107 0 0.707107 
z
" id="mafead9bed6" style="stroke:#8c564b;"/>
    </defs>
    <g>
     <use style="fill:#8c564b;stroke:#8c564b;" x="267.335022" xlink:href="#mafead9bed6" y="193.010169"/>
     <use style="fill:#8c564b;stroke:#8c564b;" x="267.371598" xlink:href="#mafead9bed6" y="192.854085"/>
     <use style="fill:#8c564b;stroke:#8c564b;" x="267.408174" xlink:href="#mafead9bed6" y="192.295171"/>
     <use style="fill:#8c564b;stroke:#8c564b;" x="267.44475" xlink:href="#mafead9bed6" y="192.269735"/>
     <use style="fill:#8c564b;stroke:#8c564b;" x="267.517901" xlink:href="#mafead9bed6" y="192.277742"/>
     <use style="fill:#8c564b;stroke:#8c564b;" x="267.591053" xlink:href="#mafead9bed6" y="192.509923"/>
     <use style="fill:#8c564b;stroke:#8c564b;" x="267.664205" xlink:href="#mafead9bed6" y="192.128856"/>
     <use style="fill:#8c564b;stroke:#8c564b;" x="267.737357" xlink:href="#mafead9bed6" y="190.504867"/>
     <use style="fill:#8c564b;stroke:#8c564b;" x="267.810509" xlink:href="#mafead9bed6" y="189.191326"/>
     <use style="fill:#8c564b;stroke:#8c564b;" x="267.88366" xlink:href="#mafead9bed6" y="187.98207"/>
     <use style="fill:#8c564b;stroke:#8c564b;" x="268.029964" xlink:href="#mafead9bed6" y="185.315438"/>
     <use style="fill:#8c564b;stroke:#8c564b;" x="268.176267" xlink:href="#mafead9bed6" y="181.762113"/>
     <use style="fill:#8c564b;stroke:#8c564b;" x="268.322571" xlink:href="#mafead9bed6" y="178.794647"/>
     <use style="fill:#8c564b;stroke:#8c564b;" x="268.468875" xlink:href="#mafead9bed6" y="176.048178"/>
     <use style="fill:#8c564b;stroke:#8c564b;" x="269.054089" xlink:href="#mafead9bed6" y="165.224353"/>
     <use style="fill:#8c564b;stroke:#8c564b;" x="269.639303" xlink:href="#mafead9bed6" y="153.046777"/>
    </g>
   </g>
   <g id="PathCollection_20">
    <defs>
     <path d="M 0 0.707107 
C 0.187527 0.707107 0.367398 0.632602 0.5 0.5 
C 0.632602 0.367398 0.707107 0.187527 0.707107 0 
C 0.707107 -0.187527 0.632602 -0.367398 0.5 -0.5 
C 0.367398 -0.632602 0.187527 -0.707107 0 -0.707107 
C -0.187527 -0.707107 -0.367398 -0.632602 -0.5 -0.5 
C -0.632602 -0.367398 -0.707107 -0.187527 -0.707107 0 
C -0.707107 0.187527 -0.632602 0.367398 -0.5 0.5 
C -0.367398 0.632602 -0.187527 0.707107 0 0.707107 
z
" id="mfd804ed70d" style="stroke:#c49c94;"/>
    </defs>
    <g>
     <use style="fill:#c49c94;stroke:#c49c94;" x="267.329869" xlink:href="#mfd804ed70d" y="197.117782"/>
     <use style="fill:#c49c94;stroke:#c49c94;" x="267.361293" xlink:href="#mfd804ed70d" y="196.371077"/>
     <use style="fill:#c49c94;stroke:#c49c94;" x="267.392716" xlink:href="#mfd804ed70d" y="196.192328"/>
     <use style="fill:#c49c94;stroke:#c49c94;" x="267.424139" xlink:href="#mfd804ed70d" y="196.197233"/>
     <use style="fill:#c49c94;stroke:#c49c94;" x="267.486986" xlink:href="#mfd804ed70d" y="196.109582"/>
     <use style="fill:#c49c94;stroke:#c49c94;" x="267.549832" xlink:href="#mfd804ed70d" y="196.216816"/>
     <use style="fill:#c49c94;stroke:#c49c94;" x="267.612679" xlink:href="#mfd804ed70d" y="195.929377"/>
     <use style="fill:#c49c94;stroke:#c49c94;" x="267.675525" xlink:href="#mfd804ed70d" y="196.135749"/>
     <use style="fill:#c49c94;stroke:#c49c94;" x="267.738372" xlink:href="#mfd804ed70d" y="195.587038"/>
     <use style="fill:#c49c94;stroke:#c49c94;" x="267.801218" xlink:href="#mfd804ed70d" y="194.741246"/>
     <use style="fill:#c49c94;stroke:#c49c94;" x="267.926911" xlink:href="#mfd804ed70d" y="193.281335"/>
     <use style="fill:#c49c94;stroke:#c49c94;" x="268.052604" xlink:href="#mfd804ed70d" y="191.402373"/>
     <use style="fill:#c49c94;stroke:#c49c94;" x="268.178297" xlink:href="#mfd804ed70d" y="190.152029"/>
     <use style="fill:#c49c94;stroke:#c49c94;" x="268.30399" xlink:href="#mfd804ed70d" y="188.547835"/>
     <use style="fill:#c49c94;stroke:#c49c94;" x="268.806763" xlink:href="#mfd804ed70d" y="183.362027"/>
     <use style="fill:#c49c94;stroke:#c49c94;" x="269.309535" xlink:href="#mfd804ed70d" y="177.378072"/>
    </g>
   </g>
   <g id="matplotlib.axis_3">
    <g id="xtick_6">
     <g id="line2d_17">
      <g>
       <use style="stroke:#000000;stroke-width:0.8;" x="267.298446" xlink:href="#me7d21d4faf" y="208.26"/>
      </g>
     </g>
     <g id="text_19">
      <!-- 0 -->
      <g transform="translate(264.117196 222.858438)scale(0.1 -0.1)">
       <use xlink:href="#DejaVuSans-30"/>
      </g>
     </g>
    </g>
    <g id="xtick_7">
     <g id="line2d_18">
      <g>
       <use style="stroke:#000000;stroke-width:0.8;" x="329.206808" xlink:href="#me7d21d4faf" y="208.26"/>
      </g>
     </g>
     <g id="text_20">
      <!-- 1 -->
      <g transform="translate(326.025558 222.858438)scale(0.1 -0.1)">
       <use xlink:href="#DejaVuSans-31"/>
      </g>
     </g>
    </g>
    <g id="xtick_8">
     <g id="line2d_19">
      <g>
       <use style="stroke:#000000;stroke-width:0.8;" x="391.115169" xlink:href="#me7d21d4faf" y="208.26"/>
      </g>
     </g>
     <g id="text_21">
      <!-- 2 -->
      <g transform="translate(387.933919 222.858438)scale(0.1 -0.1)">
       <use xlink:href="#DejaVuSans-32"/>
      </g>
     </g>
    </g>
    <g id="text_22">
     <!-- MACs -->
     <g transform="translate(326.857031 236.536563)scale(0.1 -0.1)">
      <use xlink:href="#DejaVuSans-4d"/>
      <use x="86.279297" xlink:href="#DejaVuSans-41"/>
      <use x="152.9375" xlink:href="#DejaVuSans-43"/>
      <use x="222.761719" xlink:href="#DejaVuSans-73"/>
     </g>
    </g>
    <g id="text_23">
     <!-- 1e11 -->
     <g transform="translate(395.959375 235.536563)scale(0.1 -0.1)">
      <use xlink:href="#DejaVuSans-31"/>
      <use x="63.623047" xlink:href="#DejaVuSans-65"/>
      <use x="125.146484" xlink:href="#DejaVuSans-31"/>
      <use x="188.769531" xlink:href="#DejaVuSans-31"/>
     </g>
    </g>
   </g>
   <g id="matplotlib.axis_4">
    <g id="ytick_8">
     <g id="line2d_20">
      <g>
       <use style="stroke:#000000;stroke-width:0.8;" x="260" xlink:href="#m48d29ce82b" y="201.663255"/>
      </g>
     </g>
     <g id="text_24">
      <!-- 0.00 -->
      <g transform="translate(230.734375 205.462474)scale(0.1 -0.1)">
       <use xlink:href="#DejaVuSans-30"/>
       <use x="63.623047" xlink:href="#DejaVuSans-2e"/>
       <use x="95.410156" xlink:href="#DejaVuSans-30"/>
       <use x="159.033203" xlink:href="#DejaVuSans-30"/>
      </g>
     </g>
    </g>
    <g id="ytick_9">
     <g id="line2d_21">
      <g>
       <use style="stroke:#000000;stroke-width:0.8;" x="260" xlink:href="#m48d29ce82b" y="177.257737"/>
      </g>
     </g>
     <g id="text_25">
      <!-- 0.05 -->
      <g transform="translate(230.734375 181.056955)scale(0.1 -0.1)">
       <use xlink:href="#DejaVuSans-30"/>
       <use x="63.623047" xlink:href="#DejaVuSans-2e"/>
       <use x="95.410156" xlink:href="#DejaVuSans-30"/>
       <use x="159.033203" xlink:href="#DejaVuSans-35"/>
      </g>
     </g>
    </g>
    <g id="ytick_10">
     <g id="line2d_22">
      <g>
       <use style="stroke:#000000;stroke-width:0.8;" x="260" xlink:href="#m48d29ce82b" y="152.852218"/>
      </g>
     </g>
     <g id="text_26">
      <!-- 0.10 -->
      <g transform="translate(230.734375 156.651437)scale(0.1 -0.1)">
       <use xlink:href="#DejaVuSans-30"/>
       <use x="63.623047" xlink:href="#DejaVuSans-2e"/>
       <use x="95.410156" xlink:href="#DejaVuSans-31"/>
       <use x="159.033203" xlink:href="#DejaVuSans-30"/>
      </g>
     </g>
    </g>
    <g id="ytick_11">
     <g id="line2d_23">
      <g>
       <use style="stroke:#000000;stroke-width:0.8;" x="260" xlink:href="#m48d29ce82b" y="128.4467"/>
      </g>
     </g>
     <g id="text_27">
      <!-- 0.15 -->
      <g transform="translate(230.734375 132.245919)scale(0.1 -0.1)">
       <use xlink:href="#DejaVuSans-30"/>
       <use x="63.623047" xlink:href="#DejaVuSans-2e"/>
       <use x="95.410156" xlink:href="#DejaVuSans-31"/>
       <use x="159.033203" xlink:href="#DejaVuSans-35"/>
      </g>
     </g>
    </g>
    <g id="ytick_12">
     <g id="line2d_24">
      <g>
       <use style="stroke:#000000;stroke-width:0.8;" x="260" xlink:href="#m48d29ce82b" y="104.041182"/>
      </g>
     </g>
     <g id="text_28">
      <!-- 0.20 -->
      <g transform="translate(230.734375 107.8404)scale(0.1 -0.1)">
       <use xlink:href="#DejaVuSans-30"/>
       <use x="63.623047" xlink:href="#DejaVuSans-2e"/>
       <use x="95.410156" xlink:href="#DejaVuSans-32"/>
       <use x="159.033203" xlink:href="#DejaVuSans-30"/>
      </g>
     </g>
    </g>
    <g id="ytick_13">
     <g id="line2d_25">
      <g>
       <use style="stroke:#000000;stroke-width:0.8;" x="260" xlink:href="#m48d29ce82b" y="79.635663"/>
      </g>
     </g>
     <g id="text_29">
      <!-- 0.25 -->
      <g transform="translate(230.734375 83.434882)scale(0.1 -0.1)">
       <use xlink:href="#DejaVuSans-30"/>
       <use x="63.623047" xlink:href="#DejaVuSans-2e"/>
       <use x="95.410156" xlink:href="#DejaVuSans-32"/>
       <use x="159.033203" xlink:href="#DejaVuSans-35"/>
      </g>
     </g>
    </g>
    <g id="ytick_14">
     <g id="line2d_26">
      <g>
       <use style="stroke:#000000;stroke-width:0.8;" x="260" xlink:href="#m48d29ce82b" y="55.230145"/>
      </g>
     </g>
     <g id="text_30">
      <!-- 0.30 -->
      <g transform="translate(230.734375 59.029364)scale(0.1 -0.1)">
       <defs>
        <path d="M 2597 2516 
Q 3050 2419 3304 2112 
Q 3559 1806 3559 1356 
Q 3559 666 3084 287 
Q 2609 -91 1734 -91 
Q 1441 -91 1130 -33 
Q 819 25 488 141 
L 488 750 
Q 750 597 1062 519 
Q 1375 441 1716 441 
Q 2309 441 2620 675 
Q 2931 909 2931 1356 
Q 2931 1769 2642 2001 
Q 2353 2234 1838 2234 
L 1294 2234 
L 1294 2753 
L 1863 2753 
Q 2328 2753 2575 2939 
Q 2822 3125 2822 3475 
Q 2822 3834 2567 4026 
Q 2313 4219 1838 4219 
Q 1578 4219 1281 4162 
Q 984 4106 628 3988 
L 628 4550 
Q 988 4650 1302 4700 
Q 1616 4750 1894 4750 
Q 2613 4750 3031 4423 
Q 3450 4097 3450 3541 
Q 3450 3153 3228 2886 
Q 3006 2619 2597 2516 
z
" id="DejaVuSans-33" transform="scale(0.015625)"/>
       </defs>
       <use xlink:href="#DejaVuSans-30"/>
       <use x="63.623047" xlink:href="#DejaVuSans-2e"/>
       <use x="95.410156" xlink:href="#DejaVuSans-33"/>
       <use x="159.033203" xlink:href="#DejaVuSans-30"/>
      </g>
     </g>
    </g>
    <g id="ytick_15">
     <g id="line2d_27">
      <g>
       <use style="stroke:#000000;stroke-width:0.8;" x="260" xlink:href="#m48d29ce82b" y="30.824627"/>
      </g>
     </g>
     <g id="text_31">
      <!-- 0.35 -->
      <g transform="translate(230.734375 34.623846)scale(0.1 -0.1)">
       <use xlink:href="#DejaVuSans-30"/>
       <use x="63.623047" xlink:href="#DejaVuSans-2e"/>
       <use x="95.410156" xlink:href="#DejaVuSans-33"/>
       <use x="159.033203" xlink:href="#DejaVuSans-35"/>
      </g>
     </g>
    </g>
   </g>
   <g id="line2d_28">
    <path d="M 267.444567 199.909021 
L 267.590688 199.917535 
L 267.736809 199.760263 
L 267.88293 199.530211 
L 268.175172 198.665997 
L 268.467414 198.482247 
L 268.759656 197.83995 
L 269.051898 197.157469 
L 269.34414 196.705817 
L 269.636382 196.420832 
L 270.220866 194.899968 
L 270.80535 193.833832 
L 271.389834 192.405709 
L 271.974318 191.593665 
L 274.312255 186.409217 
L 276.650191 181.652198 
" style="fill:none;stroke:#1f77b4;stroke-linecap:square;"/>
   </g>
   <g id="line2d_29">
    <path d="M 267.444567 196.566882 
L 267.590688 196.673876 
L 267.736809 196.645659 
L 267.88293 196.471811 
L 268.175172 193.950658 
L 268.467414 192.565362 
L 268.759656 190.18954 
L 269.051898 187.741622 
L 269.34414 185.818524 
L 269.636382 184.418455 
L 270.220866 179.9638 
L 270.80535 175.850437 
L 271.389834 171.50693 
L 271.974318 168.119146 
L 274.312255 151.389146 
L 276.650191 135.120308 
" style="fill:none;stroke:#aec7e8;stroke-linecap:square;"/>
   </g>
   <g id="line2d_30">
    <path d="M 267.444567 192.174873 
L 267.590688 192.304746 
L 267.736809 192.151869 
L 267.88293 192.237969 
L 268.175172 188.301946 
L 268.467414 186.309028 
L 268.759656 181.879106 
L 269.051898 177.884302 
L 269.34414 174.929287 
L 269.636382 172.706148 
L 270.220866 164.44386 
L 270.80535 157.964303 
L 271.389834 150.117653 
L 271.974318 144.96099 
L 274.312255 116.949406 
L 276.650191 89.618192 
" style="fill:none;stroke:#ff7f0e;stroke-linecap:square;"/>
   </g>
   <g id="line2d_31">
    <path d="M 267.444567 187.313099 
L 267.590688 187.431021 
L 267.736809 187.639536 
L 267.88293 187.382001 
L 268.175172 182.284136 
L 268.467414 179.591266 
L 268.759656 172.837306 
L 269.051898 167.052975 
L 269.34414 162.845613 
L 269.636382 159.916403 
L 270.220866 147.763233 
L 270.80535 138.673763 
L 271.389834 126.913594 
L 271.974318 119.615778 
L 274.312255 80.05344 
L 276.650191 40.122513 
" style="fill:none;stroke:#ffbb78;stroke-linecap:square;"/>
   </g>
   <g id="line2d_32">
    <path d="M 267.444506 195.718736 
L 267.590566 195.619192 
L 267.736627 195.591251 
L 267.882687 195.766428 
L 268.174807 194.862849 
L 268.466927 192.360515 
L 268.759048 191.038345 
L 269.051168 189.301399 
L 269.343288 188.154455 
L 269.635409 185.510737 
L 270.219649 181.664995 
L 270.80389 177.931062 
L 271.38813 174.948814 
L 271.972371 170.947747 
L 274.309333 155.727286 
L 276.646296 141.536209 
" style="fill:none;stroke:#2ca02c;stroke-linecap:square;"/>
   </g>
   <g id="line2d_33">
    <path d="M 269.588669 198.441014 
L 271.878892 195.776063 
L 274.169116 193.078359 
L 276.459339 191.25016 
L 281.039785 189.021025 
L 285.620231 186.873357 
L 290.200678 179.065552 
L 294.781124 177.259206 
L 299.36157 174.946988 
L 303.942016 173.213322 
L 313.102909 162.573148 
L 322.263802 159.138103 
L 331.424694 148.517941 
L 340.585587 145.076738 
L 377.229157 115.190637 
L 413.872727 87.145865 
" style="fill:none;stroke:#98df8a;stroke-linecap:square;"/>
   </g>
   <g id="line2d_34">
    <path d="M 267.871002 196.690638 
L 268.443558 195.800581 
L 269.016113 192.75093 
L 269.588669 191.153281 
L 270.733781 187.424424 
L 271.878892 185.136654 
L 273.024004 178.538119 
L 274.169116 174.948527 
L 275.314227 171.583125 
L 276.459339 169.107851 
L 278.749562 160.065278 
L 281.039785 153.996883 
L 283.330008 144.442241 
L 285.620231 139.180602 
L 294.781124 108.763189 
L 303.942016 78.253303 
" style="fill:none;stroke:#d62728;stroke-linecap:square;"/>
   </g>
   <g id="line2d_35">
    <path d="M 267.327273 197.33337 
L 267.356099 196.943132 
L 267.384926 196.933886 
L 267.413753 197.008539 
L 267.471406 196.959427 
L 267.529059 196.744492 
L 267.586712 196.723754 
L 267.644365 196.811885 
L 267.702018 196.796277 
L 267.759672 196.725571 
L 267.874978 196.761785 
L 267.990284 196.816504 
L 268.105591 196.858646 
L 268.220897 196.835134 
L 268.682123 194.817485 
L 269.143348 192.74376 
" style="fill:none;stroke:#ff9896;stroke-linecap:square;"/>
   </g>
   <g id="line2d_36">
    <path d="M 267.506043 200.07 
L 267.71364 200.01586 
L 267.921237 199.946914 
L 268.128834 199.889953 
L 268.544028 199.252111 
L 268.959221 198.552618 
L 269.374415 197.894195 
L 269.789609 197.105149 
L 270.204803 196.436049 
L 270.619997 195.857131 
L 271.450384 194.062792 
L 272.280772 192.77052 
L 273.111159 191.164343 
L 273.941547 189.924656 
L 277.263097 183.965104 
L 280.584648 177.613861 
" style="fill:none;stroke:#9467bd;stroke-linecap:square;"/>
   </g>
   <g id="line2d_37">
    <path d="M 267.358232 185.77976 
L 267.418017 185.599421 
L 267.477803 185.274124 
L 267.537589 185.722317 
L 267.65716 184.242623 
L 267.776732 178.465752 
L 267.896303 172.756739 
L 268.015874 167.101593 
L 268.135446 163.606477 
L 268.255017 158.854652 
L 268.49416 148.519945 
L 268.733302 139.959013 
L 268.972445 128.032533 
L 269.211588 117.428717 
L 270.168158 75.892665 
L 271.124729 36.27 
" style="fill:none;stroke:#c5b0d5;stroke-linecap:square;"/>
   </g>
   <g id="line2d_38">
    <path d="M 267.335022 193.010169 
L 267.371598 192.854085 
L 267.408174 192.295171 
L 267.44475 192.269735 
L 267.517901 192.277742 
L 267.591053 192.509923 
L 267.664205 192.128856 
L 267.737357 190.504867 
L 267.810509 189.191326 
L 267.88366 187.98207 
L 268.029964 185.315438 
L 268.176267 181.762113 
L 268.322571 178.794647 
L 268.468875 176.048178 
L 269.054089 165.224353 
L 269.639303 153.046777 
" style="fill:none;stroke:#8c564b;stroke-linecap:square;"/>
   </g>
   <g id="line2d_39">
    <path d="M 267.329869 197.117782 
L 267.361293 196.371077 
L 267.392716 196.192328 
L 267.424139 196.197233 
L 267.486986 196.109582 
L 267.549832 196.216816 
L 267.612679 195.929377 
L 267.675525 196.135749 
L 267.738372 195.587038 
L 267.801218 194.741246 
L 267.926911 193.281335 
L 268.052604 191.402373 
L 268.178297 190.152029 
L 268.30399 188.547835 
L 268.806763 183.362027 
L 269.309535 177.378072 
" style="fill:none;stroke:#c49c94;stroke-linecap:square;"/>
   </g>
   <g id="patch_9">
    <path d="M 260 208.26 
L 260 28.08 
" style="fill:none;stroke:#000000;stroke-linecap:square;stroke-linejoin:miter;stroke-width:0.8;"/>
   </g>
   <g id="patch_10">
    <path d="M 421.2 208.26 
L 421.2 28.08 
" style="fill:none;stroke:#000000;stroke-linecap:square;stroke-linejoin:miter;stroke-width:0.8;"/>
   </g>
   <g id="patch_11">
    <path d="M 260 208.26 
L 421.2 208.26 
" style="fill:none;stroke:#000000;stroke-linecap:square;stroke-linejoin:miter;stroke-width:0.8;"/>
   </g>
   <g id="patch_12">
    <path d="M 260 28.08 
L 421.2 28.08 
" style="fill:none;stroke:#000000;stroke-linecap:square;stroke-linejoin:miter;stroke-width:0.8;"/>
   </g>
   <g id="legend_2">
    <g id="patch_13">
     <path d="M 425.4 171.91125 
L 492.52125 171.91125 
Q 493.72125 171.91125 493.72125 170.71125 
L 493.72125 65.62875 
Q 493.72125 64.42875 492.52125 64.42875 
L 425.4 64.42875 
Q 424.2 64.42875 424.2 65.62875 
L 424.2 170.71125 
Q 424.2 171.91125 425.4 171.91125 
z
" style="fill:#ffffff;opacity:0.8;stroke:#cccccc;stroke-linejoin:miter;"/>
    </g>
    <g id="PathCollection_21">
     <g>
      <use style="fill:#1f77b4;stroke:#1f77b4;" x="432.6" xlink:href="#m1001a613d0" y="69.812812"/>
     </g>
    </g>
    <g id="text_32">
     <!-- ResNet-18 -->
     <g transform="translate(443.4 71.387812)scale(0.06 -0.06)">
      <defs>
       <path d="M 628 4666 
L 1478 4666 
L 3547 763 
L 3547 4666 
L 4159 4666 
L 4159 0 
L 3309 0 
L 1241 3903 
L 1241 0 
L 628 0 
L 628 4666 
z
" id="DejaVuSans-4e" transform="scale(0.015625)"/>
       <path d="M 2034 2216 
Q 1584 2216 1326 1975 
Q 1069 1734 1069 1313 
Q 1069 891 1326 650 
Q 1584 409 2034 409 
Q 2484 409 2743 651 
Q 3003 894 3003 1313 
Q 3003 1734 2745 1975 
Q 2488 2216 2034 2216 
z
M 1403 2484 
Q 997 2584 770 2862 
Q 544 3141 544 3541 
Q 544 4100 942 4425 
Q 1341 4750 2034 4750 
Q 2731 4750 3128 4425 
Q 3525 4100 3525 3541 
Q 3525 3141 3298 2862 
Q 3072 2584 2669 2484 
Q 3125 2378 3379 2068 
Q 3634 1759 3634 1313 
Q 3634 634 3220 271 
Q 2806 -91 2034 -91 
Q 1263 -91 848 271 
Q 434 634 434 1313 
Q 434 1759 690 2068 
Q 947 2378 1403 2484 
z
M 1172 3481 
Q 1172 3119 1398 2916 
Q 1625 2713 2034 2713 
Q 2441 2713 2670 2916 
Q 2900 3119 2900 3481 
Q 2900 3844 2670 4047 
Q 2441 4250 2034 4250 
Q 1625 4250 1398 4047 
Q 1172 3844 1172 3481 
z
" id="DejaVuSans-38" transform="scale(0.015625)"/>
      </defs>
      <use xlink:href="#DejaVuSans-52"/>
      <use x="64.982422" xlink:href="#DejaVuSans-65"/>
      <use x="126.505859" xlink:href="#DejaVuSans-73"/>
      <use x="178.605469" xlink:href="#DejaVuSans-4e"/>
      <use x="253.410156" xlink:href="#DejaVuSans-65"/>
      <use x="314.933594" xlink:href="#DejaVuSans-74"/>
      <use x="354.142578" xlink:href="#DejaVuSans-2d"/>
      <use x="390.226562" xlink:href="#DejaVuSans-31"/>
      <use x="453.849609" xlink:href="#DejaVuSans-38"/>
     </g>
    </g>
    <g id="PathCollection_22">
     <g>
      <use style="fill:#aec7e8;stroke:#aec7e8;" x="432.6" xlink:href="#mc00d7e932c" y="78.619687"/>
     </g>
    </g>
    <g id="text_33">
     <!-- ResNet-50 -->
     <g transform="translate(443.4 80.194687)scale(0.06 -0.06)">
      <use xlink:href="#DejaVuSans-52"/>
      <use x="64.982422" xlink:href="#DejaVuSans-65"/>
      <use x="126.505859" xlink:href="#DejaVuSans-73"/>
      <use x="178.605469" xlink:href="#DejaVuSans-4e"/>
      <use x="253.410156" xlink:href="#DejaVuSans-65"/>
      <use x="314.933594" xlink:href="#DejaVuSans-74"/>
      <use x="354.142578" xlink:href="#DejaVuSans-2d"/>
      <use x="390.226562" xlink:href="#DejaVuSans-35"/>
      <use x="453.849609" xlink:href="#DejaVuSans-30"/>
     </g>
    </g>
    <g id="PathCollection_23">
     <g>
      <use style="fill:#ff7f0e;stroke:#ff7f0e;" x="432.6" xlink:href="#ma0775ec78a" y="87.426563"/>
     </g>
    </g>
    <g id="text_34">
     <!-- ResNet-101 -->
     <g transform="translate(443.4 89.001563)scale(0.06 -0.06)">
      <use xlink:href="#DejaVuSans-52"/>
      <use x="64.982422" xlink:href="#DejaVuSans-65"/>
      <use x="126.505859" xlink:href="#DejaVuSans-73"/>
      <use x="178.605469" xlink:href="#DejaVuSans-4e"/>
      <use x="253.410156" xlink:href="#DejaVuSans-65"/>
      <use x="314.933594" xlink:href="#DejaVuSans-74"/>
      <use x="354.142578" xlink:href="#DejaVuSans-2d"/>
      <use x="390.226562" xlink:href="#DejaVuSans-31"/>
      <use x="453.849609" xlink:href="#DejaVuSans-30"/>
      <use x="517.472656" xlink:href="#DejaVuSans-31"/>
     </g>
    </g>
    <g id="PathCollection_24">
     <g>
      <use style="fill:#ffbb78;stroke:#ffbb78;" x="432.6" xlink:href="#m7bcac59e66" y="96.233437"/>
     </g>
    </g>
    <g id="text_35">
     <!-- ResNet-152 -->
     <g transform="translate(443.4 97.808437)scale(0.06 -0.06)">
      <use xlink:href="#DejaVuSans-52"/>
      <use x="64.982422" xlink:href="#DejaVuSans-65"/>
      <use x="126.505859" xlink:href="#DejaVuSans-73"/>
      <use x="178.605469" xlink:href="#DejaVuSans-4e"/>
      <use x="253.410156" xlink:href="#DejaVuSans-65"/>
      <use x="314.933594" xlink:href="#DejaVuSans-74"/>
      <use x="354.142578" xlink:href="#DejaVuSans-2d"/>
      <use x="390.226562" xlink:href="#DejaVuSans-31"/>
      <use x="453.849609" xlink:href="#DejaVuSans-35"/>
      <use x="517.472656" xlink:href="#DejaVuSans-32"/>
     </g>
    </g>
    <g id="PathCollection_25">
     <g>
      <use style="fill:#2ca02c;stroke:#2ca02c;" x="432.6" xlink:href="#m2668234fd3" y="105.040312"/>
     </g>
    </g>
    <g id="text_36">
     <!-- ViT32 -->
     <g transform="translate(443.4 106.615313)scale(0.06 -0.06)">
      <defs>
       <path d="M 1831 0 
L 50 4666 
L 709 4666 
L 2188 738 
L 3669 4666 
L 4325 4666 
L 2547 0 
L 1831 0 
z
" id="DejaVuSans-56" transform="scale(0.015625)"/>
      </defs>
      <use xlink:href="#DejaVuSans-56"/>
      <use x="66.158203" xlink:href="#DejaVuSans-69"/>
      <use x="93.941406" xlink:href="#DejaVuSans-54"/>
      <use x="155.025391" xlink:href="#DejaVuSans-33"/>
      <use x="218.648438" xlink:href="#DejaVuSans-32"/>
     </g>
    </g>
    <g id="PathCollection_26">
     <g>
      <use style="fill:#98df8a;stroke:#98df8a;" x="432.6" xlink:href="#m963252570e" y="113.847187"/>
     </g>
    </g>
    <g id="text_37">
     <!-- VGG16 -->
     <g transform="translate(443.4 115.422187)scale(0.06 -0.06)">
      <defs>
       <path d="M 3809 666 
L 3809 1919 
L 2778 1919 
L 2778 2438 
L 4434 2438 
L 4434 434 
Q 4069 175 3628 42 
Q 3188 -91 2688 -91 
Q 1594 -91 976 548 
Q 359 1188 359 2328 
Q 359 3472 976 4111 
Q 1594 4750 2688 4750 
Q 3144 4750 3555 4637 
Q 3966 4525 4313 4306 
L 4313 3634 
Q 3963 3931 3569 4081 
Q 3175 4231 2741 4231 
Q 1884 4231 1454 3753 
Q 1025 3275 1025 2328 
Q 1025 1384 1454 906 
Q 1884 428 2741 428 
Q 3075 428 3337 486 
Q 3600 544 3809 666 
z
" id="DejaVuSans-47" transform="scale(0.015625)"/>
       <path d="M 2113 2584 
Q 1688 2584 1439 2293 
Q 1191 2003 1191 1497 
Q 1191 994 1439 701 
Q 1688 409 2113 409 
Q 2538 409 2786 701 
Q 3034 994 3034 1497 
Q 3034 2003 2786 2293 
Q 2538 2584 2113 2584 
z
M 3366 4563 
L 3366 3988 
Q 3128 4100 2886 4159 
Q 2644 4219 2406 4219 
Q 1781 4219 1451 3797 
Q 1122 3375 1075 2522 
Q 1259 2794 1537 2939 
Q 1816 3084 2150 3084 
Q 2853 3084 3261 2657 
Q 3669 2231 3669 1497 
Q 3669 778 3244 343 
Q 2819 -91 2113 -91 
Q 1303 -91 875 529 
Q 447 1150 447 2328 
Q 447 3434 972 4092 
Q 1497 4750 2381 4750 
Q 2619 4750 2861 4703 
Q 3103 4656 3366 4563 
z
" id="DejaVuSans-36" transform="scale(0.015625)"/>
      </defs>
      <use xlink:href="#DejaVuSans-56"/>
      <use x="68.408203" xlink:href="#DejaVuSans-47"/>
      <use x="145.898438" xlink:href="#DejaVuSans-47"/>
      <use x="223.388672" xlink:href="#DejaVuSans-31"/>
      <use x="287.011719" xlink:href="#DejaVuSans-36"/>
     </g>
    </g>
    <g id="PathCollection_27">
     <g>
      <use style="fill:#d62728;stroke:#d62728;" x="432.6" xlink:href="#m4855653e77" y="122.654062"/>
     </g>
    </g>
    <g id="text_38">
     <!-- Wide ResNet-50 -->
     <g transform="translate(443.4 124.229062)scale(0.06 -0.06)">
      <defs>
       <path d="M 213 4666 
L 850 4666 
L 1831 722 
L 2809 4666 
L 3519 4666 
L 4500 722 
L 5478 4666 
L 6119 4666 
L 4947 0 
L 4153 0 
L 3169 4050 
L 2175 0 
L 1381 0 
L 213 4666 
z
" id="DejaVuSans-57" transform="scale(0.015625)"/>
       <path d="M 2906 2969 
L 2906 4863 
L 3481 4863 
L 3481 0 
L 2906 0 
L 2906 525 
Q 2725 213 2448 61 
Q 2172 -91 1784 -91 
Q 1150 -91 751 415 
Q 353 922 353 1747 
Q 353 2572 751 3078 
Q 1150 3584 1784 3584 
Q 2172 3584 2448 3432 
Q 2725 3281 2906 2969 
z
M 947 1747 
Q 947 1113 1208 752 
Q 1469 391 1925 391 
Q 2381 391 2643 752 
Q 2906 1113 2906 1747 
Q 2906 2381 2643 2742 
Q 2381 3103 1925 3103 
Q 1469 3103 1208 2742 
Q 947 2381 947 1747 
z
" id="DejaVuSans-64" transform="scale(0.015625)"/>
      </defs>
      <use xlink:href="#DejaVuSans-57"/>
      <use x="96.626953" xlink:href="#DejaVuSans-69"/>
      <use x="124.410156" xlink:href="#DejaVuSans-64"/>
      <use x="187.886719" xlink:href="#DejaVuSans-65"/>
      <use x="249.410156" xlink:href="#DejaVuSans-20"/>
      <use x="281.197266" xlink:href="#DejaVuSans-52"/>
      <use x="346.179688" xlink:href="#DejaVuSans-65"/>
      <use x="407.703125" xlink:href="#DejaVuSans-73"/>
      <use x="459.802734" xlink:href="#DejaVuSans-4e"/>
      <use x="534.607422" xlink:href="#DejaVuSans-65"/>
      <use x="596.130859" xlink:href="#DejaVuSans-74"/>
      <use x="635.339844" xlink:href="#DejaVuSans-2d"/>
      <use x="671.423828" xlink:href="#DejaVuSans-35"/>
      <use x="735.046875" xlink:href="#DejaVuSans-30"/>
     </g>
    </g>
    <g id="PathCollection_28">
     <g>
      <use style="fill:#ff9896;stroke:#ff9896;" x="432.6" xlink:href="#mdd8e3ae235" y="131.460938"/>
     </g>
    </g>
    <g id="text_39">
     <!-- ShuffleNet -->
     <g transform="translate(443.4 133.035937)scale(0.06 -0.06)">
      <defs>
       <path d="M 3425 4513 
L 3425 3897 
Q 3066 4069 2747 4153 
Q 2428 4238 2131 4238 
Q 1616 4238 1336 4038 
Q 1056 3838 1056 3469 
Q 1056 3159 1242 3001 
Q 1428 2844 1947 2747 
L 2328 2669 
Q 3034 2534 3370 2195 
Q 3706 1856 3706 1288 
Q 3706 609 3251 259 
Q 2797 -91 1919 -91 
Q 1588 -91 1214 -16 
Q 841 59 441 206 
L 441 856 
Q 825 641 1194 531 
Q 1563 422 1919 422 
Q 2459 422 2753 634 
Q 3047 847 3047 1241 
Q 3047 1584 2836 1778 
Q 2625 1972 2144 2069 
L 1759 2144 
Q 1053 2284 737 2584 
Q 422 2884 422 3419 
Q 422 4038 858 4394 
Q 1294 4750 2059 4750 
Q 2388 4750 2728 4690 
Q 3069 4631 3425 4513 
z
" id="DejaVuSans-53" transform="scale(0.015625)"/>
       <path d="M 3513 2113 
L 3513 0 
L 2938 0 
L 2938 2094 
Q 2938 2591 2744 2837 
Q 2550 3084 2163 3084 
Q 1697 3084 1428 2787 
Q 1159 2491 1159 1978 
L 1159 0 
L 581 0 
L 581 4863 
L 1159 4863 
L 1159 2956 
Q 1366 3272 1645 3428 
Q 1925 3584 2291 3584 
Q 2894 3584 3203 3211 
Q 3513 2838 3513 2113 
z
" id="DejaVuSans-68" transform="scale(0.015625)"/>
      </defs>
      <use xlink:href="#DejaVuSans-53"/>
      <use x="63.476562" xlink:href="#DejaVuSans-68"/>
      <use x="126.855469" xlink:href="#DejaVuSans-75"/>
      <use x="190.234375" xlink:href="#DejaVuSans-66"/>
      <use x="225.439453" xlink:href="#DejaVuSans-66"/>
      <use x="260.644531" xlink:href="#DejaVuSans-6c"/>
      <use x="288.427734" xlink:href="#DejaVuSans-65"/>
      <use x="349.951172" xlink:href="#DejaVuSans-4e"/>
      <use x="424.755859" xlink:href="#DejaVuSans-65"/>
      <use x="486.279297" xlink:href="#DejaVuSans-74"/>
     </g>
    </g>
    <g id="PathCollection_29">
     <g>
      <use style="fill:#9467bd;stroke:#9467bd;" x="432.6" xlink:href="#m56372559b8" y="140.267812"/>
     </g>
    </g>
    <g id="text_40">
     <!-- SqueezeNet -->
     <g transform="translate(443.4 141.842812)scale(0.06 -0.06)">
      <defs>
       <path d="M 947 1747 
Q 947 1113 1208 752 
Q 1469 391 1925 391 
Q 2381 391 2643 752 
Q 2906 1113 2906 1747 
Q 2906 2381 2643 2742 
Q 2381 3103 1925 3103 
Q 1469 3103 1208 2742 
Q 947 2381 947 1747 
z
M 2906 525 
Q 2725 213 2448 61 
Q 2172 -91 1784 -91 
Q 1150 -91 751 415 
Q 353 922 353 1747 
Q 353 2572 751 3078 
Q 1150 3584 1784 3584 
Q 2172 3584 2448 3432 
Q 2725 3281 2906 2969 
L 2906 3500 
L 3481 3500 
L 3481 -1331 
L 2906 -1331 
L 2906 525 
z
" id="DejaVuSans-71" transform="scale(0.015625)"/>
       <path d="M 353 3500 
L 3084 3500 
L 3084 2975 
L 922 459 
L 3084 459 
L 3084 0 
L 275 0 
L 275 525 
L 2438 3041 
L 353 3041 
L 353 3500 
z
" id="DejaVuSans-7a" transform="scale(0.015625)"/>
      </defs>
      <use xlink:href="#DejaVuSans-53"/>
      <use x="63.476562" xlink:href="#DejaVuSans-71"/>
      <use x="126.953125" xlink:href="#DejaVuSans-75"/>
      <use x="190.332031" xlink:href="#DejaVuSans-65"/>
      <use x="251.855469" xlink:href="#DejaVuSans-65"/>
      <use x="313.378906" xlink:href="#DejaVuSans-7a"/>
      <use x="365.869141" xlink:href="#DejaVuSans-65"/>
      <use x="427.392578" xlink:href="#DejaVuSans-4e"/>
      <use x="502.197266" xlink:href="#DejaVuSans-65"/>
      <use x="563.720703" xlink:href="#DejaVuSans-74"/>
     </g>
    </g>
    <g id="PathCollection_30">
     <g>
      <use style="fill:#c5b0d5;stroke:#c5b0d5;" x="432.6" xlink:href="#m32f6971c04" y="149.074688"/>
     </g>
    </g>
    <g id="text_41">
     <!-- DenseNet -->
     <g transform="translate(443.4 150.649687)scale(0.06 -0.06)">
      <use xlink:href="#DejaVuSans-44"/>
      <use x="77.001953" xlink:href="#DejaVuSans-65"/>
      <use x="138.525391" xlink:href="#DejaVuSans-6e"/>
      <use x="201.904297" xlink:href="#DejaVuSans-73"/>
      <use x="254.003906" xlink:href="#DejaVuSans-65"/>
      <use x="315.527344" xlink:href="#DejaVuSans-4e"/>
      <use x="390.332031" xlink:href="#DejaVuSans-65"/>
      <use x="451.855469" xlink:href="#DejaVuSans-74"/>
     </g>
    </g>
    <g id="PathCollection_31">
     <g>
      <use style="fill:#8c564b;stroke:#8c564b;" x="432.6" xlink:href="#mafead9bed6" y="157.881563"/>
     </g>
    </g>
    <g id="text_42">
     <!-- InceptionNet -->
     <g transform="translate(443.4 159.456563)scale(0.06 -0.06)">
      <defs>
       <path d="M 628 4666 
L 1259 4666 
L 1259 0 
L 628 0 
L 628 4666 
z
" id="DejaVuSans-49" transform="scale(0.015625)"/>
       <path d="M 3122 3366 
L 3122 2828 
Q 2878 2963 2633 3030 
Q 2388 3097 2138 3097 
Q 1578 3097 1268 2742 
Q 959 2388 959 1747 
Q 959 1106 1268 751 
Q 1578 397 2138 397 
Q 2388 397 2633 464 
Q 2878 531 3122 666 
L 3122 134 
Q 2881 22 2623 -34 
Q 2366 -91 2075 -91 
Q 1284 -91 818 406 
Q 353 903 353 1747 
Q 353 2603 823 3093 
Q 1294 3584 2113 3584 
Q 2378 3584 2631 3529 
Q 2884 3475 3122 3366 
z
" id="DejaVuSans-63" transform="scale(0.015625)"/>
       <path d="M 1159 525 
L 1159 -1331 
L 581 -1331 
L 581 3500 
L 1159 3500 
L 1159 2969 
Q 1341 3281 1617 3432 
Q 1894 3584 2278 3584 
Q 2916 3584 3314 3078 
Q 3713 2572 3713 1747 
Q 3713 922 3314 415 
Q 2916 -91 2278 -91 
Q 1894 -91 1617 61 
Q 1341 213 1159 525 
z
M 3116 1747 
Q 3116 2381 2855 2742 
Q 2594 3103 2138 3103 
Q 1681 3103 1420 2742 
Q 1159 2381 1159 1747 
Q 1159 1113 1420 752 
Q 1681 391 2138 391 
Q 2594 391 2855 752 
Q 3116 1113 3116 1747 
z
" id="DejaVuSans-70" transform="scale(0.015625)"/>
      </defs>
      <use xlink:href="#DejaVuSans-49"/>
      <use x="29.492188" xlink:href="#DejaVuSans-6e"/>
      <use x="92.871094" xlink:href="#DejaVuSans-63"/>
      <use x="147.851562" xlink:href="#DejaVuSans-65"/>
      <use x="209.375" xlink:href="#DejaVuSans-70"/>
      <use x="272.851562" xlink:href="#DejaVuSans-74"/>
      <use x="312.060547" xlink:href="#DejaVuSans-69"/>
      <use x="339.84375" xlink:href="#DejaVuSans-6f"/>
      <use x="401.025391" xlink:href="#DejaVuSans-6e"/>
      <use x="464.404297" xlink:href="#DejaVuSans-4e"/>
      <use x="539.208984" xlink:href="#DejaVuSans-65"/>
      <use x="600.732422" xlink:href="#DejaVuSans-74"/>
     </g>
    </g>
    <g id="PathCollection_32">
     <g>
      <use style="fill:#c49c94;stroke:#c49c94;" x="432.6" xlink:href="#mfd804ed70d" y="166.688438"/>
     </g>
    </g>
    <g id="text_43">
     <!-- GoogLeNet -->
     <g transform="translate(443.4 168.263438)scale(0.06 -0.06)">
      <defs>
       <path d="M 2906 1791 
Q 2906 2416 2648 2759 
Q 2391 3103 1925 3103 
Q 1463 3103 1205 2759 
Q 947 2416 947 1791 
Q 947 1169 1205 825 
Q 1463 481 1925 481 
Q 2391 481 2648 825 
Q 2906 1169 2906 1791 
z
M 3481 434 
Q 3481 -459 3084 -895 
Q 2688 -1331 1869 -1331 
Q 1566 -1331 1297 -1286 
Q 1028 -1241 775 -1147 
L 775 -588 
Q 1028 -725 1275 -790 
Q 1522 -856 1778 -856 
Q 2344 -856 2625 -561 
Q 2906 -266 2906 331 
L 2906 616 
Q 2728 306 2450 153 
Q 2172 0 1784 0 
Q 1141 0 747 490 
Q 353 981 353 1791 
Q 353 2603 747 3093 
Q 1141 3584 1784 3584 
Q 2172 3584 2450 3431 
Q 2728 3278 2906 2969 
L 2906 3500 
L 3481 3500 
L 3481 434 
z
" id="DejaVuSans-67" transform="scale(0.015625)"/>
       <path d="M 628 4666 
L 1259 4666 
L 1259 531 
L 3531 531 
L 3531 0 
L 628 0 
L 628 4666 
z
" id="DejaVuSans-4c" transform="scale(0.015625)"/>
      </defs>
      <use xlink:href="#DejaVuSans-47"/>
      <use x="77.490234" xlink:href="#DejaVuSans-6f"/>
      <use x="138.671875" xlink:href="#DejaVuSans-6f"/>
      <use x="199.853516" xlink:href="#DejaVuSans-67"/>
      <use x="263.330078" xlink:href="#DejaVuSans-4c"/>
      <use x="317.292969" xlink:href="#DejaVuSans-65"/>
      <use x="378.816406" xlink:href="#DejaVuSans-4e"/>
      <use x="453.621094" xlink:href="#DejaVuSans-65"/>
      <use x="515.144531" xlink:href="#DejaVuSans-74"/>
     </g>
    </g>
   </g>
  </g>
 </g>
 <defs>
  <clipPath id="pe231ae253c">
   <rect height="180.18" width="161.2" x="58.5" y="28.08"/>
  </clipPath>
 </defs>
</svg>
